<?xml version="1.0" encoding="UTF-8"?>
<svg enable-background="new 0 0 335.369 222.292" viewBox="0 0 335.369 222.292" xmlns="http://www.w3.org/2000/svg">
 <path d="m214.368.336c.259,5.815 3.779,8.368 5.103,13.121 2.35-.323 1.611-3.734 3.645-4.374 1.145.556 1.098,2.303 1.822,3.28-1.052,1.499-1.838,3.265-3.28,4.374 .287,1.257-.34,1.603-1.094,1.822-2.103-.691-1.373-4.215-3.279-5.103-.061-1.033-.668-1.519-.729-2.552-1.611.686-2.784,2.964-5.103,1.822-.131-2.682.354-4.749 2.916-4.738 .63-1.279-.347-2.366-.729-3.645-1.642.302-1.94,1.947-4.373,1.458-.294-.677-.472-1.472-1.094-1.822 .988-2.097 2.98-4.967 6.195-3.643zm-4.374,3.644c1.39-.068 2.398-.518 2.552-1.822-1.615-.156-2.309.608-2.552,1.822zm2.916,6.561h1.822c.317-1.169-.561-1.139-1.094-1.458-.189.539-.539.919-.728,1.458z" fill-rule="evenodd"/>
 <path d="m275.962,2.159c1.531.532 3.148.98 5.466.728 .393,3.03-5.381,2.656-5.832.73-.046-.655.446-.77.366-1.458z" fill-rule="evenodd"/>
 <path d="m275.232,5.438c1.743.444 3.395.98 4.374,2.187 .349,1.321-1.573.371-1.822,1.094-1.271,3.344-.122,9.111-2.916,10.933-2.163-1.394-5.023.825-7.288-.728-.212-3.306 4.116-5.623 6.194-3.28 1.466-2.059 2.074-4.973 2.916-7.654-.112-.494-.911-.302-1.458-.364v-2.188zm-5.467,12.392c1.466.128 2.668-.005 2.917-1.092-.945-.763-3.107-.409-2.917,1.092z" fill-rule="evenodd"/>
 <path d="m243.16,10.905h1.094c.003,1.033 1.815,3.516 0,4.008 .114.858 1.728.216 1.457,1.458-1.297,1.45-3.096,2.127-3.28,4.01-.206,2.114 2.52,5.432 3.646,6.924-1.299,1.944-1.215,4.989-3.28,5.467-4.667,1.08-4.876-6.396 0-6.561-.923-3.573-3.343-5.647-3.28-10.205 1.897-1.015 2.87-2.957 3.643-5.101z" fill-rule="evenodd"/>
 <path d="m226.031,27.306h1.093c1.887,1.593 2.474,4.851 3.646,8.019 .895,2.418 2.909,4.956 2.187,7.289-1.866-1.535-1.809-4.996-3.645-6.561-.455-3.859-1.505-4.869-3.28-7.289-.001-.486-.001-.972-.001-1.458z" fill-rule="evenodd"/>
 <path d="m263.57,27.306c.424-.06.648.08.729.364 .147.877-.666.792-.366,1.822h-1.092c-3.268,4.873-6.701,9.579-9.841,14.579-.116,1.828-.726,3.162-1.822,4.009-.933-1.532.384-4.101 1.093-5.467 .617-1.188 1.739-2.303 2.552-3.645 2.116-3.499 4.7-7.93 8.019-10.205-.419-1.145.571-.885.728-1.457z" fill-rule="evenodd"/>
 <path d="m212.91,38.239c.243,1.6 1.424,3.981 0,5.103-4.631.813-6.427-6.573 0-5.103zm-.365,3.281c.112-1.448-.701-1.972-2.188-1.822-.364,1.702.637,2.036 2.188,1.822z" fill-rule="evenodd"/>
 <path d="m218.012,39.333c.396.09.247.724.729.729-.785,1.874-2.228,5.491-2.187,8.019 .01.619.174.689.729.729-1.43,1-.213,4.646-2.916,4.373 .853-4.608-.641-11.84 3.645-13.85z" fill-rule="evenodd"/>
 <path d="m285.801,44.436c1.272,1.737 2.867,7.656-.364,8.382-.01-.354-.445-.283-.729-.364 .36-3.276-.754-5.079-1.458-7.289 .954-.141 1.019-1.169 2.551-.729z" fill-rule="evenodd"/>
 <path d="m211.087,45.894c.062,3.711.1,7.664 2.187,10.569 1.704,2.373 5.237,3.586 5.467,7.29-3.28-.242-3.526-3.521-6.195-4.374-2.235-2.784-5.232-10.195-1.459-13.485z" fill-rule="evenodd"/>
 <path d="m222.386,47.352c.862,1.182 1.713,3.349.364,4.738-1.08.498-1.588-.213-3.28,0 .124-.731-.075-1.141-.729-1.094-.272-2.703.645-4.213 3.645-3.644zm-1.458,3.28h1.093c.318-1.169-.561-1.141-1.093-1.458v1.458z" fill-rule="evenodd"/>
 <path d="m123.252,89.628c-1.466-1.119-.572-3.289-.728-4.738-.619-5.731-.866-14.269-3.645-18.951-1.491-2.512-3.721-4.688-6.196-6.925-2.77-2.502-4.329-4.428-9.84-3.644-3.21.455-6.03,2.815-8.747,5.102-4.61,3.878-8.328,7.707-10.569,13.849-2.388,1.014-1.315,5.488-4.738,5.467-.547-2.652 1.9-4.818 3.28-7.289 1.3-2.33 2.077-5.081 3.645-7.289 1.391-1.96 4.764-5.354 7.289-7.29 2.045-1.567 3.67-2.987 6.561-4.373 .626-.3.781-.99 1.094-1.094 5.486-1.812 7.872.609 11.663,2.916 3.193,1.943 5.112,3.03 7.289,5.831 2.89,3.72 4.092,9.799 5.466,15.671-.664,1.845-.248,4.229-.364,6.56-.121,2.405-.023,5.212-1.46,6.197z" fill-rule="evenodd"/>
 <path d="m206.349,60.107c-6.461.976-2.77-8.947 1.094-4.373 .21,2.031-.166,3.478-1.094,4.373zm-1.094-2.187c.474-.483.481-1.355-.364-1.458-.474.485-.48,1.357.364,1.458z" fill-rule="evenodd"/>
 <path d="m223.479,61.93c.297,4.124-5.585,4.291-4.373-.729 1.252-1.212 3.656-.599 4.373.729zm-2.551,1.457h.729v-.729h-.729v.729z" fill-rule="evenodd"/>
 <path d="m301.837,61.565c-.253,1.833.619,2.541.364,4.374-.857-.009-1.072.627-2.186.364 .104-2.654-1.444-3.659-2.187-5.467 1.674-.567 3.033-.28 4.009.729z" fill-rule="evenodd"/>
 <path d="m185.576,77.602c-6.175-3.666-12.272-7.408-18.588-10.935-.606-.724.034-.462 0-1.457 .31-.068.344.141.365.364 4.877,2.55 9.835,5.229 14.578,8.383 1.326.882 3.622,1.59 3.645,3.645z" fill-rule="evenodd"/>
 <path d="m232.225,66.303v5.102c-4.57,2.339-5.83-7.933 0-5.102zm-2.185,3.28h.729v-1.458h-.729v1.458z" fill-rule="evenodd"/>
 <path d="m205.255,72.135c-.788-1.054-.299-3.268.366-4.01 5.693-2.463 5.335,6.949-.366,4.01zm1.458-2.188v.73c.222.02.432.054.364.364h.729c.021-.222.055-.431.364-.364v-.73c-.222-.02-.431-.054-.364-.364h-.729c-.019.222-.053.431-.364.364z" fill-rule="evenodd"/>
 <path d="m239.879,75.05c-.1,1.237.282,2.956-.364,3.646-2.234.039-3.625-1.851-2.552-4.01 1.421-.289 1.891-.377 2.916.364z" fill-rule="evenodd"/>
 <path d="m292.727,81.61c-.196-3.13 3.228-3.014 5.467-3.644 1.945-.548 3.981-1.387 5.83-1.458 .629,2.62-2.283,2.07-3.644,2.552-1.612.57-3.21,1.497-4.738,1.458-.598.738-1.485,1.186-2.915,1.092z" fill-rule="evenodd"/>
 <path d="m201.975,77.966c.686,1.603.771,3.662-.364,5.103-1.335.121-2.023-.404-2.916-.729-.817-2.664.376-4.46 3.28-4.374zm-.727,2.552c-.366.001-.435-.296-.73-.366-.995.588.534,1.223.73.366z" fill-rule="evenodd"/>
 <path d="m58.743,81.61c.464,1.558-.608.766-1.093,1.094-3.653,2.474-5.273,7.907-7.653,10.205-2.413-1.01 1.39-3.578 0-4.738 2.367-2.493 3.914-7.746 8.746-6.561z" fill-rule="evenodd"/>
 <path d="m138.559,84.526h.73c10.772,4.476 20.731,10.918 30.614,16.765 .861.509 3.642,1.034 2.916,2.916-.23,1.051-1.692-.431-2.186-.73-4.055-2.447-9.827-5.755-14.579-8.017-.004-.724-.995-.463-.73-1.458-5.854-2.286-10.276-6.002-16.399-8.018 .045-.654-.447-.768-.366-1.458z" fill-rule="evenodd"/>
 <path d="m48.538,85.62c-.497,3.027-3.846,3.201-4.374,6.195-1.73-2.607 1.339-5.999 4.374-6.195z" fill-rule="evenodd"/>
 <path d="m150.587,85.62h.729c.762-.155.964.249 1.458.364 .891.202 1.332.854 1.822,1.458 2.845.593 5.205,2.394 7.654,3.644 2.459,1.255 5.458,1.953 6.925,4.374 2.668,1.339 6.11,1.906 6.56,5.467-2.253-.785-3.004-3.071-5.832-3.28-4.031-4.131-11.458-6.491-16.401-10.205-1.149.178-1.286-.657-2.55-.364-.284-.324-.393-.824-.365-1.458z" fill-rule="evenodd"/>
 <path d="m243.524,90.722c-1.371.552-2.356.929-4.009.364-1.387-2.657-.704-5.281 1.458-5.466 1.671-.143 3.995,2.528 2.551,5.102zm-2.916-2.187c-.367,1.097.812.646 1.458.729v-1.094c-.635-.026-1.134.081-1.458.365z" fill-rule="evenodd"/>
 <path d="m316.052,88.535c-.692,4.314-5.468,6.394-8.382,9.112-.498-4.145 5.277-5.169 6.194-9.112 .518.031 1.033.061 1.094-.364 .293.193.592.381 1.094.364z" fill-rule="evenodd"/>
 <path d="m207.807,93.273c-.846.732-2.28.879-4.01.729-3.872-2.466 1.497-6.446 4.01-3.28v2.551zm-3.28-1.093c.688-.162 2.196.495 1.822-.729h-1.822v.729z" fill-rule="evenodd"/>
 <path d="m298.558,93.273c-1.265.293-1.401-.542-2.551-.364-1.436,1.135.239,3.137-.729,4.738-1.563.737-5.815,1.318-5.467-1.822h2.916c-.63-1.393-.198-3.479.364-4.738 1.976-.777 5.737-.47 5.467,2.186z" fill-rule="evenodd"/>
 <path d="m231.498,92.909c3.513-1.259 5.826,2.343 3.644,4.374-1.382-.195-.014-1.36-.728-2.552-2.08-.263-1.229,1.317-1.094,2.552h-1.822c-1.17-1.809.835-2.898 0-4.374z" fill-rule="evenodd"/>
 <path d="m165.895,110.768c-6.594-2.611-12.563-7.21-18.953-10.57-.955-.502-1.966-.984-2.915-1.457-1.029-.512-2.08-.627-2.917-1.094-.398-.222-.684-1.245-1.094-1.458-1.092-.569-2.184-.815-3.28-1.458v-1.092c2.172-.859 2.965,2.552 5.832,2.186 2.04,2.334 6.169,2.576 8.019,5.103 1.114-.265 1.071.628 2.187.364 1.66,1.62 3.57,2.99 6.196,3.644 1.559,2.692 6.105,2.398 6.925,5.832z" fill-rule="evenodd"/>
 <path d="m197.239,98.011c1.112,1.314 1.411,1.815 1.456,3.644-2.042,1.215-5.824.726-5.466-2.55 .354-.01.282-.447.364-.729 .908-.306 1.952-.477 3.279-.364-.271-2.036-2.237-2.378-2.186-4.738 2.011-.31 2.681.721 2.916,2.188 2.039.976 4.306,2.437 7.288,2.915 1.872.3 4.333-.79 5.467,1.094-.912,2.188-4.912,1.851-7.289,1.458-2.549-.423-4.673-2.268-5.829-2.918zm-.366,2.552c.168-1.139-.777-1.165-1.821-1.094-.168,1.139.779,1.165 1.821,1.094z" fill-rule="evenodd"/>
 <path d="m251.907,95.825c.61.604.29,2.14.364,3.28-4.741,3.494-6.714-6.006-.364-3.28zm-1.093,1.458c-.493-.115-.697-.519-1.458-.365-.584,1.015 1.573,1.008 1.458.365z" fill-rule="evenodd"/>
 <path d="m320.425,95.825c.009.858-.627,1.073-.364,2.187-4.032,2.405-6.685,6.193-11.299,8.018-.555-2.947 3.599-3.429 5.468-5.102 1.578-1.414 3.012-3.743 4.009-5.467 .899-.049 1.756-.056 2.186.364z" fill-rule="evenodd"/>
 <path d="m318.967,100.563c.324.161.652.32.729.729-1.515,5.904-9.312,9.532-14.215,12.757-1.213-1.005.251-2.398 1.458-2.188 4.181-3.595 9.103-6.449 12.028-11.298z" fill-rule="evenodd"/>
 <path d="m209.994,102.75c-.327,1.374-.314,3.086-.729,4.374-1.871.292-2.768-.391-4.01-.73-.804-3.81 1.878-4.511 4.739-3.644z" fill-rule="evenodd"/>
 <path d="m260.29,103.843c.145,1.48-1.551,1.121-1.822,2.186 .088.642.627.831 1.458.729 .54-.309.783-.916.729-1.822 .813.525 1.365,1.307 1.094,2.916-.464.508-1.785.158-1.822,1.094-.47-.868-1.633-1.04-2.551-1.458-.525-2.568.798-4.892 2.914-3.645z" fill-rule="evenodd"/>
 <path d="m318.967,108.216c-.589.103-.628-.344-1.093-.364-1.549,4.702-6,6.178-9.841,8.382-2.008,1.152-3.372,3.171-5.832,3.28-.293-2.48 2.731-1.643 2.916-3.645 3.55-.824 5.265-3.483 8.383-4.738 1.348-1.812 2.891-3.427 4.374-5.103 1.305-.211 1.109,1.08 1.093,2.188z" fill-rule="evenodd"/>
 <path d="m275.232,110.038c-.045,1.503.635,2.283.364,4.01-.741.107-.97.729-1.456,1.092-1.598.019-1.65-1.508-3.28-1.458 .477-2.193 1.358-3.985 4.372-3.644zm-2.187,3.28c.953.103 1.568-.132 1.458-1.092-.466-.021-.505-.468-1.094-.366-.115.494-.518.697-.364,1.458z" fill-rule="evenodd"/>
 <path d="m318.967,110.038c.355.01.283.447.364.729-.028,2.251-2.111,3.275-3.645,5.102-2.859,3.411-10.404,9.018-15.671,9.841-1.223.19-2.801.43-4.009-.365 .883-1.968 2.828-1.318 4.373-1.822 6.351-2.064 11.404-6.666 16.4-10.205 .272-1.552 1.478-2.168 2.188-3.28z" fill-rule="evenodd"/>
 <path d="m283.615,114.776c.998,1.144 1.744,4.076.364,5.467-4.062.611-5.954-6.302-.364-5.467zm-1.823,3.28c.529-.199 1.884.426 1.822-.364-.748-.344-.753-1.434-1.822-1.458-.682.694-.04.916 0,1.822z" fill-rule="evenodd"/>
 <path d="m317.145,116.962c.424-.059.648.081.729.366 1.015.779-.361,1.228-.729,1.821-1.028,1.66-1.462,2.201-2.915,3.645-1.812,1.8-4.581,3.324-6.56,5.467-4.202,1.144-7.067,3.626-11.663,4.374-.094-2.794 3.424-2.845 5.103-3.645 6.078-2.898 12.366-6.368 16.035-12.028z" fill-rule="evenodd"/>
 <path d="m265.755,120.243c-1.01.57-1.898,1.259-2.186,2.552 .368.604 1.547.396 2.186.729 .772-.331-.687-1.464-.363-2.551 1.751.192 2.204,1.683 2.188,3.645-1.697.561-3.055.006-4.738-.364-1.037-2.475.157-5.545 2.913-4.011z" fill-rule="evenodd"/>
 <path d="m315.687,124.252c.041,1.377-.713,1.959-1.822,2.187-.15-1.486.374-2.299 1.822-2.187z" fill-rule="evenodd"/>
 <path d="m278.512,129.355c-1.34.788-4.02.268-5.467,0-3.18-5.602 6.295-5.471 5.467,0zm-1.822-.73c-.006-1.451-.907-2.009-2.187-2.187-.349,1.809 1.095,1.823 2.187,2.187z" fill-rule="evenodd"/>
 <path d="m268.308,132.271c-.189,2.01 1.275,2.368.728,4.737-5.094,1.463-6.595-6.014-.728-4.737zm-1.822,2.915h1.094c.065-.796-.299-1.159-1.094-1.093v1.093z" fill-rule="evenodd"/>
 <path d="m165.165,138.102c1.61.577 3.448.926 3.28,3.28-1.68-.507-3.333-1.04-3.28-3.28z" fill-rule="evenodd"/>
 <path d="m276.326,143.568c-1.877.179-3.055-.347-4.01-1.092v-2.916c2.377-2.731 6.174,1.321 4.01,4.008zm-2.552-1.821h1.458c.103-.953-.132-1.568-1.092-1.459 .081.69-.411.805-.366,1.459z" fill-rule="evenodd"/>
 <path d="m8.447,139.924c1.123.256.701.256 1.823,0-.005.967.202,2.146-.729,2.188-1.306.21-1.108-1.08-1.094-2.188z" fill-rule="evenodd"/>
 <path d="m13.915,139.924c1.046,1.223 2.125,1.456 1.458,3.644-.975-.969-2.683-1.204-2.552-3.28 .517.032 1.033.061 1.094-.364z" fill-rule="evenodd"/>
 <path d="m293.456,142.112c1.204,1.495-.348,3.97 1.458,4.372-1.479,3.029 1.662,5.535 1.458,7.289-2.327.551-3.046-2.499-4.01-4.372-.841-1.637-2.477-4.183-.729-7.289h1.823z" fill-rule="evenodd"/>
 <path d="m116.692,145.39c.495.114.303.913.365,1.458 1.822-1.201 5.349.535 5.467,3.28-.819-2-8.222-.895-5.832-4.738z" fill-rule="evenodd"/>
 <path d="m20.475,145.756c1.67-.367 2.779,3.249.728,3.28-1.253-.057-1.346-2.481-.728-3.28z" fill-rule="evenodd"/>
 <path d="m107.22 147.94c1.546 1.248 4.126 1.463 4.373 4.009-2.154-0.64-4.279-1.309-4.373-4.009z" fill-rule="evenodd"/>
 <path d="m259.925,150.128c1.317.385 3.213.188 2.916,2.188-1.761.06-2.781-.621-2.916-2.188z" fill-rule="evenodd"/>
 <path d="m24.483,151.951c1.226-.087 1.883,1.354 1.094,2.188h-1.094c-.713-.681-.112-1.336 0-2.188z" fill-rule="evenodd"/>
 <path d="m25.941,162.521c1.797.33 3.359.929 2.551,2.915-1.145-.19-2.033-.639-2.916-1.093-.148-.878.667-.792.365-1.822z" fill-rule="evenodd"/>
 <path d="m10.999,167.624c1.702-.365 2.038.636 1.822,2.187-1.701.364-2.037-.637-1.822-2.187z" fill-rule="evenodd"/>
 <path d="m30.68,172.726h1.822c.723.249-.228,2.171 1.093,1.822-.808,2.197-3.054.114-2.915-1.822z" fill-rule="evenodd"/>
 <path d="m253.365,173.819c.512,1.067.98,2.179.729,4.01-1.286-.173-.179-2.738-1.823-2.553-2.764,1.429-.021,2.982 1.094,3.28 2.779.747 6.378-1.979 7.654-2.55 .608,3.646-1.813,4.26-3.28,5.83-2.557.317-5.37-.053-6.561-1.822-2.022-3.005-3.351-6.303 2.187-6.195z" fill-rule="evenodd"/>
 <path d="m270.86,178.922c-.98-.252-.706.752-1.095,1.092-2.921.351-5.795-1.215-3.644-4.372 3.085-.912 4.747.206 4.739,3.28zm-3.647-1.458v1.092h1.822c.411-1.473-1.118-1.802-1.822-1.092z" fill-rule="evenodd"/>
 <path d="m15.737,177.464c1.591-.255 1.62,1.051 2.916,1.092 .178,1.151-.657,1.288-.365,2.553-.816-.398-1.826-.604-2.551-1.095v-2.55z" fill-rule="evenodd"/>
 <path d="m29.222,181.472c.654-.047.769.447 1.458.364 .675,3.103-3.22,1.471-1.458-.364z" fill-rule="evenodd"/>
 <path d="m85.713,184.389c-.045,1.291-2.068.604-2.552,1.457 .212,6.835 1.732,12.36 5.468,15.672-2.075,3.849-4.714-1.305-6.561-2.187-1.471-2.901-4.611-10.176-1.822-13.851 .897-1.178 4.226-3.713 5.467-1.091z" fill-rule="evenodd"/>
 <path d="m114.141,201.154c-3.449-.682-3.653-4.607-6.561-5.832-.226-2.446-1.398-3.947-2.552-5.467 .522-1.543.145-3.985.73-5.466 1.139-.268 2.625-1.482 3.644-.73 .521,1.908.403,3.629.729,5.468 .788,4.437 2.632,8.186 4.01,12.027z" fill-rule="evenodd"/>
 <path d="m254.094,185.117c.306.909.477,1.953.364,3.28-1.471,1.507-2.613.65-4.738.364-1.617-3.153 1.528-5.01 4.374-3.644zm-2.552,1.458c-.352,1.34 1.791,1.45 1.822.364-.644-.32-1.064-1.155-1.822-.364z" fill-rule="evenodd"/>
 <path d="m23.39,186.575v2.187c-.831.501-1.37-.938-1.458,0-1.006.156-.341-1.358-1.093-1.456 .051-1.044 1.521-.669 2.551-.731z" fill-rule="evenodd"/>
 <path d="m121.066,188.033c4.876-.138 5.228,4.248 8.018,6.196 3.491.762 6.01,2.494 6.195,6.561-2.179-1.101-5.271-1.289-7.289-2.552-8.424,3.741-16.826-1.478-16.035-9.111 4.042.582 4.419,5.531 7.653,6.925 1.451.625 3.161-.025 5.466.364-1.07-3.062-4.221-4.039-4.008-8.383z" fill-rule="evenodd"/>
 <path d="m209.265,188.761c4.144,1.932 2.589,9.561 9.111,9.112-1.253-2.998-3.946-4.558-4.009-8.747 .529-.564 1.865-.321 2.916-.365 2.868,3.208 5.39,6.758 7.653,10.57 .856.115 1.368.575 2.552.364-.108,1.229-.184,2.489-.729,3.28-3.058-.102-3.744-2.573-6.196-3.28-6.962,4.278-12.679-2.666-12.756-9.841-.11-.96.762-.939 1.458-1.093z" fill-rule="evenodd"/>
 <path d="m31.773,196.416c1.141-.169 1.627.317 1.458,1.458h-1.458v-1.458z" fill-rule="evenodd"/>
 <path d="m39.062,197.509c1.261-.288 1.539.404 2.187.729-.53,1.169-1.03,2.371-2.55,2.552-.84-.947.012-2.412.363-3.281z" fill-rule="evenodd"/>
 <path d="m29.951,198.602c.085,1.786-1.084,2.318-2.551,2.552-1.169-1.62.538-2.954 2.551-2.552z" fill-rule="evenodd"/>
 <path d="m17.559,199.696c2.628,3.735 3.03,9.138 5.467,12.757 1.491,2.213 4.225,1.814 4.737,4.736-1.72.083-3.584-.378-5.103-1.456-2.625-1.866-7.788-10.595-8.018-15.673 .531-.563 1.867-.32 2.917-.364z" fill-rule="evenodd"/>
 <path d="m.794,200.424c4.042.171 3.476,5.296 4.373,8.383 .865,2.974 2.278,5.466 3.28,7.653 1.522.787 3.911.707 4.374,2.553-6.646,2.249-12.182-7.151-12.756-13.486-.165-1.819-.05-3.681.729-5.103z" fill-rule="evenodd"/>
 <path d="m45.987,202.612c.237-1.028.423.839.365,1.093-.169.732-.685.294-.365-1.093z" fill-rule="evenodd"/>
 <path d="m30.315,205.163c.54.19.919.539 1.458.729-.004,2.443-2.771.822-1.458-.729z" fill-rule="evenodd"/>
 <path d="m35.053,208.807c2.035-.574 2.506,2.792.729,2.916-1.186-.036-1.336-2.201-.729-2.916z" fill-rule="evenodd"/>
 <path d="m271.224,58.285c.515-.131 1.567-.603 2.916-.364 3.92.694 8.348,7.922 7.652,14.215-.436,3.941-3.589,9.179-5.467,12.391-1.691,2.893-2.518,3.437-5.102,5.832-4.935,4.572-14.594,1.478-15.673-5.832-1.385-9.378 7.687-12.01 10.57-17.494 1.33-2.528.114-7.472 5.104-8.748zm2.55,6.196c.292-1.167 1.077-1.839 1.094-3.28-1.876-1.559-3.825,3.33-1.094,3.28zm-4.372-.729c1.047-.047 1.729-.457 1.458-1.822-1.147-.052-1.254.935-1.458,1.822zm5.83,2.187c2.178.981 1.844,4.475 4.374,5.102 .071-1.408.013-2.686-.365-3.644-1.03-.302-.943.514-1.822.364-1.128-1.604 1.01-4.209-1.093-4.738-.677.66-.832,1.84-1.094,2.916zm-17.493,18.951c1.53,3.714 8.138,7.995 11.663,3.28-1.561-2.396-5.604-2.996-8.748-1.822-.61-2.675 2.115-2.017 2.916-3.28-1.906-1.521-5.654-.585-5.831,1.822z" fill-rule="evenodd"/>
 <path d="m258.103,137.008c.661-.542-1.585.203-2.552-.364-2.332-1.921-5.962-2.542-8.383-4.373 1.648-2.573 6.069,1.47 7.654,1.822 1.252.277 3.451,1.192 3.645-1.094-3.077-1.418-6.282-2.708-10.205-3.28-1.504.075-.424,2.735-2.552,2.187-.996-1.645.586-2.127.729-3.645-.353-5.437.323-11.654-1.458-16.401-.987-.402-.781-1.817-1.458-2.55-.736-.799-2.104-.819-2.916-1.458-1.459-1.149-1.896-3.528-4.009-3.28-.141-1.784-.813-2.472-.728-3.644-7.46.603-15.619.199-21.504-1.822-2.163,2.704.373,10.93-4.374,10.933 .043-3.495 1.563-6.788 1.458-10.569-.138-4.903-1.823-10.047.364-14.579-.318-1.503-2.318-1.326-2.551-2.915 .186-1.03.882-1.549 1.093-2.552 .969.004 2.083-.138 2.552.364 1.916-2.093 2.505-5.514 3.645-8.383 .006-1.584-2.132-1.025-2.551-2.186-.259-1.352.622-1.565.364-2.916 1.087-.613 2.494-.908 3.645-1.458 1.198,1.758 1.059,3.573.729,6.196-.062.791 1.293.165 1.822.364-.413,4.666 1.791,6.714 2.552,10.205 .626-.466.732-1.454 1.458-1.822 1.775-.317 2.417.499 3.645.729-.228,2.445-.427,4.919-3.28,4.738 1.032,3.827 2.674,7.044 2.187,12.391 10.91.121 19.363,1.667 25.877,6.561 1.983,1.489 2.611,2.805 4.374,5.102 1.538,2.006 3.645,6.84 4.009,10.205 .185,1.713-.382,3.731.729,4.738-.914-.054-.212,4.084-.364,6.196-.121,1.68-.924,2.639-.364,3.645-1.614,2.638-2.33,6.174-3.645,9.111 .694.519 1.582.848 2.551,1.094 .555-.905.648-2.268 1.822-2.552 1.889-.774 2.646,1.456 2.916,1.094 .732.406.418,2.819 0,3.28 3.476,1.503 6.353,3.609 10.204,4.737 2.694-6.054 7.033-10.462 9.841-16.4-1.802-.971-3.872-3.548-2.187-5.832 2.03-.329 3.074.328 4.373.729 2.153-3.546 1.252-8.658 1.458-14.579-.43-.542-.316-1.628-1.458-1.458 .5-3.51-3.483-5.106-4.738-8.017-3.303-1.195-9.255-1.778-12.392,0-1.908,2.95-2.568,7.149-6.196,8.381-.846-3.208 2.361-5.374 2.553-8.747 2.25-1.422 4.892-3.751 8.382-4.008 3.469-.256 6.276,1.471 9.111,2.55-1.495-1.661-2.212-4.105-1.822-7.653 .859-.883 3.763-1.923 4.374,0-.035,1.422-2.2.714-2.916,1.458-.579,7.566 8.771,7.215 13.485,2.915 2.125-1.937 4.806-5.985 4.01-10.569-.336-1.923-1.525-2.232-2.552-4.008-3.554-.831-4.484,2.323-6.925,1.458-.675-2.375 2.252-1.151 1.458-3.646 3.303-1.458 6.68-4.707 10.933-4.008 .209,2.88-4.147,1.198-4.372,3.645 1.434,3.66 4.182,2.851 6.194-.364 3.237-5.171 3.528-17.462 0-24.054-1.353-2.531-3.347-3.554-3.645-5.468-1.351-.833-3.166-1.206-4.008-2.55 1.963-2.229 4.739.775 6.56,1.092 .953,3.785 4.553,4.925 4.738,9.477 .09.396.725.248.729.729 .373,1.571-.001,3.888 1.458,4.373-.396,5.921-.477,12.159-2.916,16.037 2.053,1.361 3.53.488 5.468,1.092 6.844,2.143 9.32,10.78 10.569,18.589 .23,1.441.996,3.056.729,5.103-.105.807-.694,1.109-.729,1.822-.104,2.126-.122,3.879-.364,7.288-.129,1.809-.941,3.309-1.458,5.103-.585,2.03-1.125,5.495-1.822,7.654-.325,1.009-.537,2.557-.729,2.915-.077.145-.953-.108-1.094,0 .188-.146-.376,1.611-.364,1.458-.206,2.742 1.776,4.739 2.552,6.196-.253.861-.842,3.26 0,4.008 1.501.95 1.714-2.036 2.916-2.55 1.324.011 1.601,1.071 1.457,2.55 1.044-.413 1.923-.991 2.916-1.456 1.246-.274.463,1.479 1.822,1.093-.825,2.641 1.678,3.251 1.458,4.737-1.992,2.996-3.131-2.492-4.738-1.094-.531.557.346,2.796 0,4.374-1.43.338-1.354.794-2.915.364-.726-1.826-.663-4.439-1.458-6.196-1.421.646-2.852,1.28-2.916,3.28-2,.188-2.493,1.881-4.009,2.552-.044,1.833-.537,2.139-1.822,3.28-.79.062-.166-1.293-.365-1.822-1.772-1.06-5.101-2.846-6.194-4.738-.164-.281-.765-2.279-.73-2.552 .417-3.266 5.151-2.648 7.29-5.103-2.832.453-5.151,3.349-8.018,2.553 0-1.822 2.324-1.32 3.279-2.187-1.656-.732-4.338,2.368-6.56,1.093-.012-1.59 1.658-1.5 2.914-1.822 3.386-1.232 5.69-3.544 8.748-5.103 1.181,2.956-3.163,3.343-4.374,5.103 2.673.285 3.748-2.706 5.467-2.187 .533,3.559-2.108,6.415-5.467,5.83-.371,1.587.754,1.676 1.094,2.553 1.363-1.311 3.888-1.458 4.738-3.28 .853-.112 1.505-.715 2.187,0 .062-3.464-1.464-5.34-2.187-8.019-7.634-2.812-14.543,2.056-16.767,8.019 .264,1.194 1.494,1.422 2.916,1.458-.17.777.521.693 1.095.728-.061,1.642 1.711,1.304 2.55,2.188 .324.34.019,1.141.366,1.456 .843.774 2.058,2.479 3.279,3.646 .201.808-.696.518-.729,1.092 .803,1.384 2.791,1.583 3.28,3.28 .133,1.446-.76,4.758-2.187,5.832 9.177-.907 16.196-3.972 24.784-5.468 .856,1.296.037,2.1.729,3.28-3.062,5.442-3.063,13.945-6.196,19.317-4.893.396-7.663-1.326-11.663-1.822-.614,2.112 3.341,9.029-1.457,10.568-1.408.072-2.687.013-3.646-.364-.464,2.087-2.114,2.989-3.645,4.009-.079-1.461-1.861-.504-2.55-.729-1.289-.419-2.081-1.715-3.28-1.822-1.139-2.142-2.681-3.882-3.28-6.561-1.863.81-2.112,3.233-5.467,2.551-1.05,2.169-3.884,3.313-6.196,3.28-1.028-.014-1.505-.795-2.552-1.093-1.479-.419-3.792-.908-5.103-1.094-4.953-.699-9.443,2.229-13.485,3.645-2.586.906-5.204,1.309-8.018,2.552-.693.306-1.108,1.162-1.822,1.458-3.374,1.398-6.949,1.881-10.569,2.915 .34,1.239 1.868,1.291 1.458,3.28-3.688-.563-4.38-4.125-8.019-4.737-.446,1.548 2.632,2.706 2.187,5.467-4.77.031-6.043-3.434-10.205-4.01-.341,1.686 2.299,3.527 3.28,5.103-.509.948-1.45,1.465-1.821,2.552-2.592-2.146-4.854-4.623-6.925-7.289-.815-6.255-1.793-15.16 4.738-16.037-1.442,2.587-1.891,6.79-1.094,10.569 1.281.663 2.337,1.551 3.644,2.188 .691-.777-2.327-4.132.73-4.374 .277-2.895-.503-6.193.363-8.746 .391-1.149 1.572-2.089 2.187-3.28 .756-1.464 1.374-6.127 4.01-4.01-1.057,3.683-3.263,6.214-3.279,10.934 .695.382 3.05-1.615 4.736-.363 1.006,1.999-.558,3.54-1.457,4.737-1.253.16-2.042-.145-2.916-.365 3.958,9.485 17.714,3.121 23.69.365-1.332-4.914 5.022-4.771 5.832-1.821 2.335-.581 4.319-1.511 6.561-2.188-.475-1.058-.475-2.586 0-3.645 1.432-.783 2.64.071 4.008.364 .117.846-.058,1.4-.364,1.822 3.451-.293 4.726,1.592 7.653,1.822 .283-1.255-.202-1.739-1.458-1.456-.451-1.615-1.323-2.809-2.187-4.011-2.723.293-3.529-1.329-3.28-4.008 .856-.117 1.368-.576 2.552-.364-.073-3.477-.344-7.148 1.822-8.383-1.729-2.411-10.159-.1-6.561,2.551 1.127-.089-.57-3 1.093-2.551 .676.782.246,2.669.365,4.009-2.5.82-4.091-1.172-4.374-3.645-2.296-.125-4.034-1.022-6.196.729-1.341,1.087-1.904,3.302-3.644,4.374-2.685,1.654-6.198,2.562-9.111,2.55 1.744-2.524 5.308-2.686 7.653-4.372 2.281-1.642 2.877-4.067 4.374-6.561-.791-.303-.812-1.375-1.822-1.458-1.968.938.674,1.776.364,3.28-2.386.199-2.529-1.845-2.553-4.009 2.672-1.621 3.962,1.025 7.29,0 .814.921-.795,1.628-.729,2.915 2.638,1.233 4.211-.088 6.927-.364-6.184-4.386-14.622-6.518-21.868-9.841-.377,1.143-.694,2.364-1.094,3.645-.717,2.293-1.242,3.993-2.552,5.832-.149.209-.966.104-1.093.364-.106.218.167.929 0,1.094s-.446-.596-.365-.729c-.397.648-.804,1.96-.729,2.552 2.636.209 2.171-1.056 2.552-2.552 .645.328 1.064.88 1.822,1.094 .109,2.104-4.486,4.604-5.103,1.458-3.782,4.113-9.792,6.001-16.036,7.652-3.557,4.837-8.423,11.254-17.494,9.841-2.037-.317-3.159-1.212-5.104-2.187-1.508,1.65-2.094,4.224-4.373,5.103-.56,2.804 1.657,5.834 1.822,9.111 1.379,2.145 4.477,2.57 5.467,5.103-6.833.745-10.09-5.207-10.568-12.027-2.519-.325-6.504,1.025-9.841,1.094 2.034,3.813 4.964,8.208 6.561,11.299 .219,1.312-1.112,1.074-1.095,2.187-1.126-1.06-3.11-1.262-4.372-2.187-2.918,3.545-8.317-.485-9.112-3.645-4.06,1.626-6.742,6.298-12.392,6.56-.785.036-1.348-.575-2.186-.729-1.465-.268-3.094.16-4.374,0-.617-.078-.816-.582-1.458-.729-1.582-.362-3.523.009-5.102-.365-2.772-.656-4.509-2.696-6.925-2.915-.767-1.907-3.041-2.306-4.738-3.28-.25,2.688 3.521,3.273 3.645,4.373-.109,2.277-4.714.945-4.738-.364-.29,2.317-2.411.867-4.009,1.458 .018-2.567-2.442-2.66-4.008-3.645-1.539-2.845-3.455-6.596-1.824-10.57-3.482-5.074-2.182-12.613-5.831-16.399-4.622-4.797-12.24-7.913-16.765-12.757-2.647.218-2.773-2.085-5.466-1.822-1.061-1.004-2.201-1.93-4.01-2.187-.281-3.459-1.138-9.293.73-11.662-.083-.525-1.088-.128-1.094-.729 .564-6.657.348-14.983-4.009-17.859v-2.187c10.169-1.524 11.157,9.37 9.111,16.766 1.266,1.581 4.788,1.519 4.01,3.28-1.032,1.634-3.218-1.551-4.738-1.822-.75.103-.729.973-1.094,1.458 2.653,3.241 7.996,4.26 10.205,6.924 2.471.324 4.461,1.128 5.466,2.916-7.341-.555-10.279-5.513-16.035-7.654-1.498.445-.209,1.407 0,2.188-.749.346-1.735.45-1.822,1.456 4.63,3.146 9.122,6.429 14.213,9.112 .065,1.505-1.23,1.083-1.458,1.458 .84,1.093 1.999.662 1.822-1.094 1.688,1.106 3.825,1.764 5.104,3.28-1.162,1.196-.488,2.247.729,2.916 .993-.336-.509-1.14 0-2.187 1.566.171 2.312,1.723 2.916,1.822 .057,1.766-1.489.777-2.188.364 .43,1.15 1.891,1.268 2.552,2.187 .966.116-.341-2.041 1.094-1.458 .126,1.088 1.742.687 1.092,2.552 3.518-.358 3.593,2.724 6.196,3.28-.713-2.446-2.754-3.563-3.645-5.832-5.277-2.134-7.706-7.116-14.214-8.019-1.306-2.596-6.193-2.873-5.831-5.103 1.323.136 1.738,1.178 3.645.729 2.787,2.699 6.811,3.888 10.205,6.196 1.639,1.114 2.892,2.963 4.738,3.645 .327-4.702-6.784-5.121-8.382-9.112 .623.018.943-.271 1.094-.729 1.366,2.4 4.199,3.333 6.195,5.103 .289-6.318-6.289-3.673-6.924-8.746 2.089.762 3.712,3.74 6.196,2.914-.474-1.105-2-1.157-1.458-3.28-2.347-.903-4.395-3.314-6.924-5.103-2.391-1.689-5.852-2.664-6.925-5.466 1.714-.304 2.818,1.061 4.009,1.822 2.284,1.461 4.645,2.728 6.196,5.102 1.267.313 2.463.694 2.915,1.822 .384-.408.008-3.147-.364-4.008-1.694-1.707-4.472-2.33-5.466-4.738-1.945-.485-4.196-.663-4.009-3.28 3.639.977 5.33,3.901 8.383,5.466 1.024-.93-.885-2.01-1.094-2.914-1.327-.617-2.778-1.111-3.28-2.552-1.316-.386-3.076-.326-2.552-2.551 3.179.465 4.561,2.729 6.561,4.373 .905-2.975-3.124-4.161-3.644-6.925 1.378-.527.7,1.001 1.822.729-.31-1.269-1.047-2.112-1.822-2.916 .04-9.038-6.635-14.497-8.383-22.961-3.366-.267-5.701-2.02-9.111-1.822-4.375.253-7.967,2.964-11.299,4.374-8.491,7.909-17.502,15.299-22.231,26.97-.431.42-1.289.412-2.187.364-.218,1.361-.855,2.305-1.458,3.28-3.743,4.948-6.747,10.511-11.298,14.579-.699.623-1.743.802-2.552,1.456-.67.544-1.089,1.626-1.822,2.188-2.454,1.881-5.872,2.667-7.654,5.467 1.986,1.293 4.618,1.943 5.467,4.374 1.03.3.944-.514 1.822-.365-.14,1.94 1.339,3.387 2.551,4.738 3.985,4.445 5.443,12.257 6.195,21.139-1.197,1.256-.228,2.85-.729,5.103 4.503-3.881 8.525-11.398 13.85-15.671 3.445-6.467 10.344-10.505 15.671-15.673 3.404-3.3 5.584-6.643 8.748-10.205 1.492-3.118 2.604-6.979 1.822-10.568-.508-1.538-2.788-2.274-1.094-4.011 1.861.448 2.146,2.472 3.28,3.646 .417,2.09-1.027,3.959.728,4.372-2.584,10.854-10.089,16.854-17.493,23.326-.938.82-1.642,2.118-2.552,2.916-.797.699-2.088,1.026-2.915,1.822-1.161,1.113-2.161,2.667-3.28,4.008-1.032,1.235-1.864,2.929-2.917,4.011-1.918,1.97-4.698,4.271-6.195,7.288-1.048.775-2.466,1.18-2.187,3.28 3.132.148 3.883,2.677 5.832,4.01 .629-4.197 1.356-8.028 2.551-12.028 .583-1.953 3.101-7.019 6.196-6.561-.656,5.906-3.257,9.863-3.646,16.037-.319,1.169.946.755 1.094,1.458 .346,1.317-1.435.508-2.186.729-.171.778.521.694 1.092.729 .042,1.256-1.5.931-1.457,2.187 .078,2.795 2.604.909 1.822,4.374-.299-.918-1.663-.769-2.917-.729-1.744-3.358-5.494-4.71-8.382-6.925-.231,3.997.257,7.274 1.093,10.205-4.644.026-3.47-5.763-4.374-9.476-2.646.999-3.151,4.137-5.466,5.467 .417,2.984 1.957,4.847 3.644,6.561-1.505,1.668-4.245-.033-5.467-1.458-.7-.818-.524-2.299-1.457-2.552 .455-2.155-.989-2.413-1.458-3.645-1.666,2.708-1.832,6.916-3.28,9.841-1.255.688-2.075,1.812-3.28,2.552 .615.964.844,2.314 1.458,3.28 .182,1.396 2.695.463 2.551,2.186-.597,1.296-2.657.866-3.28.729-2.299-.508-3.494-3.904-4.738-5.103-2.137-.314-2.535,1.109-3.644,1.822-4.427.598-6.315-3.296-8.019-6.561-.194-.372-.41-1.041-.729-1.458-2.25-2.938-4.988-9.298-4.737-14.213 1.504-2.505 6.376-1.642 8.018-4.009 2.441.055 4.637-1.817 6.56-1.094-.362,2.334-3.312,2.217-5.102,2.916-1.687.659-3.076,1.549-4.374,2.187h-2.187c.134.62-.285.688-.729.729 .595,4.409 2.777,8.555 5.103,12.028 2.245,3.352 3.646,4.658 7.289,5.467 1.17-.774 2.761-1.127 4.009-1.822 .461-1.24.825-2.576 1.093-4.01-1.603-.597-3.44,1.977-4.008-1.093 1.399-1.219 2.08-.932 4.008-.366 .779-4.667-.569-10.362-2.186-13.849-.916.543-.492,2.426-2.187,2.188-1.147-1.33.143-2.556 1.458-2.552-.398-2.797-.314-3.987-1.093-6.561-6.222.097-8.902,3.734-14.215,4.738-1.045-2.475 2.188-2.427 4.009-3.28 2.756-1.291 4.903-3.923 9.841-3.28 .055-1.393-1.725-.948-1.822-2.186 .31-6.208-1.315-11.326-2.916-17.495-.178-.688-.439-1.504-.729-2.187-1.753-4.132-3.567-8.657-6.196-11.663 .021-2.153-2.074-5.35-3.644-7.288-3.307-4.083-6.8-9.679-14.943-6.926-1.617,2.271-3.223,4.552-4.373,7.29 .332,1.247 2.148,1.01 1.457,3.28-.726.759-1.276-.27-1.822-.73-1.032,3.349.689,7.39.729,9.477 .275.94 2.696-.266 2.551,1.094 .356,1.57-1.369,1.061-1.458,2.187 1.221,5.582 2.965,11.034 5.832,15.308 .964,1.437 2.033,4.275 3.28,6.196 1.28,1.97 2.906,3.587 4.374,5.466 1.326,1.698 3.123,3.551 3.645,5.832-2.049.016-5.23-2.774-6.925-4.738-2.078-2.408-4.648-6.537-6.925-10.57-1.109-1.964-1.767-3.89-2.551-6.194-1.076-3.168-1.949-5.315-2.915-9.112-.938-3.683-2.857-9.23-2.551-14.213 .153-2.494.866-5.675 2.186-7.654 .467-.7 1.562-1.026 2.188-1.822 .792-1.01.964-2.447 1.458-2.916 2.801-2.665 7.218-2.084 11.663-2.551 8.144,2.91 13.343,8.767 17.494,15.671v1.822c2.377,2.604 3.646,6.316 4.737,10.205 2.642-.616 3.811-3.302 5.832-4.737 1.286-.914 3.595-.954 4.009-2.916-1.123-1.063-2.554-1.819-4.374-2.188-3.834-4.791-8.563-8.687-8.019-17.857 1.032-.549 2.933-.227 3.645-1.094-4.505-2.782-6.804-7.773-10.569-11.299-1.062-5.791-2.868-11.735-2.551-18.951 .451-10.269 1.561-23.09 6.196-29.886 1.386-2.033 3.652-2.804 4.738-4.738 2.182-.368 3.407-1.695 5.103-2.55 15.131-1.329 18.104,10.778 19.681,21.868-.824.755-1.139,2.02-1.458,3.28 3.109-.759 6.439-2.34 9.111-4.738 1.487-1.333 2.334-4.036 4.738-4.009 1.037,2.928-2.704,4.048-3.28,6.561-4.153,4.592-13.734,3.759-14.578,11.663 .321,1.171-1.201.5-1.093,1.457 .563,1.993-.87,3.891-1.094,5.468-.875,6.163-.259,12.361 1.094,17.493 .165.626.879.842 1.093,1.458 .196.566-.45.651-.364,1.094 .376,1.939 2.18,5.148 2.915,6.561 .444.853.898,1.832 1.822,2.187 .004.969-.137,2.081.365,2.551 2.792-.482 2.352-5.332 5.832-4.009 .584-1.239 1.392-2.252 1.458-4.009 1.684-.778 1.448-2.776 2.186-4.01 .487-.813 1.646-1.317 2.187-2.187 .532-.854.578-2.175 1.094-2.916 .923-1.324 2.448-2.297 3.645-3.645 3.25-3.655 6.802-7.542 10.205-11.298 4.216-1.314 7.447-4.673 12.393-5.466 2.283-.367 4.708.265 7.653,0 12.335,12.031 18.653,31.377 21.503,51.753 .543.43 1.028.915 1.458,1.458 .919,2.71 1.518,5.81 2.55,9.111 .936,2.99 2.327,5.062 3.646,8.383 1.021,2.574.956,7.007 2.186,9.477 1.009,2.025 3.311,2.799 3.645,5.102h-1.822c-1.694-1.343-3.118-2.955-5.102-4.008-.761-2.157-2.187-3.646-3.645-5.103 .016,6.786 4.381,12.383 8.382,16.399 7.875,3.165 15.864,11.192 29.156,9.477 6.127-.791 9.725-6.119 12.757-10.569 1.63-.191 2.376-1.27 3.28-2.188 5.414-2.724 16.126-.152 17.859-6.561-.104-1.961-1.571-2.561-2.553-3.645-1.428-4.823-2.493-9.63-5.102-13.12-1.013-1.353-3.019-1.94-2.916-4.009 10.753,1.734 8.513,19.997 20.045,20.773 6.91.467 10.149-4.562 14.579-8.017-2.868-1.629-7.274-1.717-9.112-4.374-5.809-2.695-10.709-6.299-16.399-9.111-5.433-.788-11.218-1.963-16.766-.729 1.713,3.138 5.296,6.125 4.736,12.757-.183,2.185-.399,5.468-2.186,6.196-1.497-1.835.608-3.522.729-5.468 .407-6.562-5.838-9.557-7.29-14.578-1.412-.168-2.08-1.079-3.645-1.094 .43,5.646 5.717,9.589 6.561,16.036-2.295-.65-2.583-3.312-4.009-5.103-1.801-2.258-4.142-3.377-4.374-7.289-2.158-2.58-2.092-7.384-5.103-9.11 .343,3.183 1.902,7.082.729,10.568-2.028-.752-1.124-2.933-1.458-4.374-.85-3.671-2.582-6.724-4.008-10.569-1.581-1.092-2.343-3.002-4.374-3.644-1.958-2.659-3.178-6.055-5.831-8.019-4.612-9.604-11.919-16.51-16.766-25.876-3.617-3.187-5.275-8.332-6.924-13.486-1.422-1.25-2.943-2.403-2.916-5.103-1.578-2.31-2.545-5.229-4.008-7.653-.619-.718-1.838-.836-1.458-2.552 4.165.41 4.552,4.966 7.289,7.654 1.428-2.544 1.549-5.409 2.552-8.018 1.03-2.682 3.124-4.804 3.645-7.653 1.304-.154.796-2.12 2.186-2.188-.265-1.114.629-1.071.364-2.186 1.558-.751 2.808-1.81 3.646-3.28 1.294-.236 2.428-1.249 3.644-1.822 1.181-.558 2.858-.657 3.645-1.822 6.455-1.646 14.7-1.28 20.409.729 7.373,3.683 12.641,9.471 19.317,13.849 4.68-18.645 8.124-38.526 18.223-51.752 5.302-.7 7.22,2.543 9.84,5.102 1.901,1.856 3.735,2.952 4.738,5.467 3.988,2.33 4.274,8.361 7.654,11.298 1.241,3.374 2.686,6.548 4.738,9.111 2.188,7.774 7.092,12.831 8.017,21.868 1.629,1.167 4.108,1.481 4.738,3.644 1.061-3.052 2.341-5.828 4.374-8.382 2.103-2.642 3.97-4.539 5.831-8.017 1.709-3.196 2.771-6.768 3.279-12.393 2.88-4.411 9.696-4.883 14.579-7.289-1.321-4.603-.013-12.247 5.467-13.121 2.943-.47 5.035,1.274 7.654,2.55 2.135,3.034 3.647,6.37 4.738,10.206 .194.685.595.562.729,1.093 .188.74-.777,2.237.729,2.552-.616,1.45-.286,3.843-.366,5.831-.857-.008-1.072.629-2.186.364-.514-3.221-.423-8.366-1.822-12.027-.115-.3-.729-.213-.729-.729 0-.849-.177-1.195-1.094-2.552-1.357-2.004-2.673-5.195-6.925-4.373-8.091,1.563-.247,14.492-3.28,21.138-2.836-.687-.947-6.1-1.822-8.747-6.83,2.523-16.095,2.614-14.214,13.849-.052.865-1.142,1.122-1.459,1.822-.544,1.208-.304,2.979-1.092,4.374-.148.26-2.731,3.518-3.28,4.008-.441.394-1.444.297-1.822.73-.754.859-1.06,2.611-1.822,3.644-1.084,1.467-1.885,1.771-2.916,4.008-2.158,4.682.198,13.967 4.009,17.131 3.207,2.662 7.848,3.477 13.12,1.822 .522,2.228-3.241,3.1-4.737,3.28-7.982.963-15.487-7.04-15.308-17.129-.714-1.474-2.212-2.162-3.28-3.28-1.321.257-1.561,1.598-3.645,1.093-.662-1.497-.222-3.781.364-5.103-3.069-8.229-6.406-16.19-9.841-24.054-1.5-.044-.063,2.851-1.092,3.28-1.458,1.275-1.65-1.048-3.28-.729-.103-1.233-.581-2.092-.366-3.645 .693-.887 2.126-1.034 2.916-1.822-1.97-3.74-4.25-7.169-5.83-11.299-1.03-.915-2.002-1.886-2.916-2.915-2.613,1.02-4.58-.417-5.467-2.188-.162-1.375.719-1.711 1.093-2.55-2.03-1.684-3.722-5.001-7.289-4.01-2.37,2.491-3.026,6.692-5.467,9.112-2.358,9.67-5.35,18.705-7.653,28.428 .62,1.081.927,2.474.729,4.373-.697.518-1.046,1.386-2.188,1.458-1.749,11.249-4.861,21.136-5.102,33.896 1.449,1.465 3.879,1.952 6.196,2.55 .586-.146-.015-2.138-.364-2.55 1.901-2.801 7.553.407 4.738,3.279 .771,1.659 4.226.633 5.83,1.458 .059,1.031-1.095.849-1.094,1.822 4.442,5.781 21.202,1.536 21.14,11.663-.011,1.635-1.108,2.195-1.094,4.374 8.967,5.127 18.64,9.546 28.063,14.215 .524-.205.889-.569 1.094-1.094-2.205-2.777-6.98-2.983-10.205-4.738v-1.822c3.993.987 7.23,2.731 10.934,4.009 .75-.096.085-1.611 1.092-1.456zm-38.633-102.049c.81.285 1.421.767 2.551.73-.274-1.305-.843-2.316-2.187-2.552-.305.424-.48.977-.364,1.822zm11.299,19.681h1.092c-.061-.545.131-1.344-.363-1.458-.005.724-.996.464-.729,1.458zm-67.79,80.182c-.444.527-1.455.487-1.458,1.458 3.303,3.621 5.861,7.988 9.476,11.299 .187,1.028.883,1.547 1.093,2.55 4.074.423 5.037,3.955 7.29,6.196 .055-.796.918-.782 1.822-.729 3.818,2.85 10.53.812 16.766,1.457 5.399.561 9.394,2.856 13.484,3.646 3.184,2.769 6.706,5.199 11.663,6.195 .315-1.505 2.129-1.516 4.009-1.458 .573-.885 1.55-1.364 2.916-1.457 2.813-3.14 4.937-6.969 7.654-10.206 .131-2.967 2.463-4.206 4.736-4.009-4.832-1.362-8.543-3.846-13.849-4.738-3.725,6.029-8.986.89-9.841-4.372-2.175,4.991-2.968,11.367-9.476,12.026-6.905-4.215-.251-10.45 1.093-16.036-3.06,1.72-6.536,6.361-11.297,4.01-3.984,2.875-9.316,5.724-14.215,2.914-.255-.145-.552-.998-.729-1.092-2.38-1.282-2.922-.891-4.374-2.916-3.323-4.635-6.022-12.414-4.738-18.224 .532-2.405 2.766-4.751 2.916-7.288 3.274-3.599 7.277-6.049 13.85-6.197-3.27-1.188-2.442-4.64-2.187-8.018 .498-6.579 1.16-14.515 2.55-18.952-5.996-4.938-12.282-9.584-18.587-14.215-2.676.004-4.323-1.021-6.195-1.822-1.172-.32-.499,1.202-1.458,1.094-.883-1.47-5.75-2.282-7.29-.729 1.642.176 2.259,1.714 3.646,2.551 1.725,1.041 4.091,1.5 5.831,2.552 .22.132.419.892.729,1.092 1.41.917 2.775,1.387 4.008,2.188 1.43.927 3.916,1.926 4.009,4.008-6.118-3.114-10.833-7.633-17.857-9.84 .055-.906-.573-1.128-.73-1.822-2.109-.394-4.323-1.28-5.466.728 1.031,2.007 3.55,2.523 5.831,3.28 1.324,1.752 3.514,2.618 5.468,3.646 2.012,1.057 4.148,2.152 6.195,3.279 4.037,2.222 8.479,4.266 11.299,7.29-4.795-.915-6.996-4.424-11.663-5.467-.366-.727-.91-1.277-1.458-1.823-1.263.293-1.401-.542-2.551-.364-.108-.741-.729-.97-1.094-1.458-4.693-1.138-7.05-4.612-12.027-5.467-.562-2.582-5.192-2.155-5.467.364 1.632.434 2.265,1.866 4.373,1.822 5.21,3.294 10.678,6.33 16.401,9.112-.016.502.172.799.364,1.094 2.813.807 5.061,2.851 7.654,4.373 2.199,1.292 6.416,2.218 6.561,5.467-12.262-7.176-23.755-15.121-37.174-21.138 .139,1.233-1.615.573-1.094,2.186 4.012,2.914 9.629,4.222 13.121,7.654-6.103-.944-9.042-5.051-14.943-6.196-.116.856-.576,1.369-.364,2.551 3.79.462 5.167,3.337 9.111,3.646-.266.995.724.733.728,1.458 1.021.193 1.895.535 2.917.729 .9,2.138 4.909,1.167 4.738,4.374-6.569-2.428-11.883-8.031-19.315-8.383-.188,2.676 2.967,2.875 4.737,3.645 1.986.862 4.165,1.572 5.103,3.28-3.249-.306-7.048-3.132-10.205-4.738-.08.285-.304.424-.728.364-.764,2.152-2.461,3.37-2.552,6.196 4.411,2.393 9.207,4.399 13.121,7.289 .083-.283.01-.718.364-.729v1.458c3.411,1.32 6.865,3.757 9.476,5.467 .407.266.662.822 1.094,1.094 1.203.757 3.469.536 3.644,2.55-2.276.649-4.011-1.784-5.832-2.916-1.991-1.239-4.508-1.829-5.831-3.644-5.748-2.878-10.598-6.654-16.765-9.111-.3,1.279-.966,2.193-1.094,3.644 1.563,2.811 2.94,5.807 4.374,8.747 1.183-.211 1.695.249 2.55.364 .401,1.787 3.078,1.296 3.646,2.916 .857-.008 1.072.627 2.186.364 .334,1.367 1.731,1.671 3.28,1.822 .184,1.478 2.459,1.598 3.28,2.188 1.607,1.155 3.457,2.869 5.831,3.28 1.279,2.73 5.939,2.079 6.561,5.466-2.092.056-3.735-1.35-5.103-2.186-1.526-.935-3.368-1.765-4.373-3.28-6.025-2.116-10.071-6.211-16.037-8.383 1.757,2.424 2.471,5.513 4.375,7.653 1.653,1.861 4.283,2.684 6.559,4.01 4.124,2.399 8.814,5.172 12.757,7.288 .938,2.102 4.327,1.748 4.738,4.374-3.513.354-3.499-2.817-6.56-2.916-2.664-2.559-5.869-4.579-9.84-5.832-.845-1.828-3.057-2.289-4.738-3.28 .312,1.76 1.567,2.913 2.552,4.374 .936,1.389 1.698,3.333 2.916,4.374 1.774,1.519 4.818,2.199 6.925,3.645 1.112.763 1.89,1.841 2.915,2.551 1.007.698 3.27.603 2.916,2.552-4.612-.613-7.213-5.177-10.569-5.832 1.594,3.384 3.691,6.269 6.922,8.019zm-115.534-68.155c-.926,1.352-2.564,2.094-3.645,3.28-1.836,2.017-2.759,4.69-4.738,6.561-.944,3.961-1.412,6.521-2.916,9.477-.384,5.138-.57,11.707-1.093,18.223 .004.48.639.333.729.728-.4.364-1.369,1.987-.364,2.552 .05-1.514.24-.074.728,0 .178-3.149-.131-5.475.365-7.654 .188,4.02 1.19-5.299 2.915-4.738-.184-1.407-1.889-3.196-.728-4.737 1.201.013 1.393,1.036 1.457,2.186 3.803,3.772 9.593,4.199 15.308,3.645 1.757-1.036 2.162-3.427 4.008-4.374-.968-2.232.64-4.265.729-6.559 .16-4.111-1.922-8.176-3.28-10.57-.664-1.17-1.22-3.192-1.822-4.008-.24-.327-1.178-.384-1.458-.73-.453-.561-.98-3.358-2.186-1.092-.211,1.349 2.829.407 1.457,1.822-.754-.148-3.658,1.666-2.551,3.28 1.182-.763 1.82-2.068 4.009-1.822 .306.422.48.977.365,1.822-2.33-.143-3.358,1.016-4.009,2.55 1.396.184 2.614.545 2.915,1.822 .934-1.01 2.416-1.472 3.646-2.187-1.31,4.037-4.351,6.341-6.925,9.112h-4.738c-1.186.393-1.393,1.765-2.551,2.187-.931-.042-.723-1.221-.729-2.187-1.961.468-1.23,3.629-3.28,4.008-.781-2.556 1.721-4.785 2.551-6.924-.087-1.083-1.355,1.461-1.822,0 .451-7.084 4.214-13.346 11.663-14.579-.955-.747-2.133-1.27-4.01-1.094zm168.745,2.188h1.094c-.084-.646.367-1.825-.729-1.458-.116.492-.52.695-.365,1.458zm-176.035,0c-5.779,5.24-8.246,15.767-9.111,26.24-.503,6.1-.346,15.784 1.094,21.139 .114.426 1.727,4.367 1.822,2.916 .985-.56-1.221-3.774-1.458-4.374 1.079-2.799-.003-5.988 0-9.11 .003-3.305.578-7.056.729-10.57 .149-3.481-.187-6.946.364-9.839 .658-3.455 2.372-7.222 3.645-9.84 1.742-3.586 3.851-5.16 5.102-7.654-.008,1.083-1.719.466-2.187,1.092zm2.916,7.653c-.202.307-.229.877-.365,1.094-.623,1.003-2.051,2.734-1.458,4.008 2.497-3.7 4.547-7.845 7.654-10.933-2.365,1.038-4.575,3.919-5.831,5.831zm4.738,0c1.253-.083 1.588-1.084 1.822-2.187-1.109.228-1.862.81-1.822,2.187zm165.465,18.587c2.761,1.977 6.611,2.866 11.299,2.916-1.264-8.213-4.284-14.668-6.925-21.503-2,5.656-4.807,10.502-4.374,18.587zm-166.193-15.671c-.404,1.541-1.574,2.314-1.823,4.008h4.009c.469-1.717.932-3.441 1.458-5.102-1.965-1.764-1.783,2.754-3.644,1.094zm164.006,2.916h1.458c.317-1.169-.562-1.141-1.094-1.458-.115.492-.518.696-.364,1.458zm87.107,59.042c.171-3.525 5.068-5.821 4.738-6.925-2.472.323-3.734,1.854-5.832,2.551-.005-.725-.995-.463-.729-1.457 2-1.791 6.254-2.479 8.019-4.01 .409-.357.938-.043 1.456-.364 1.127-.698 2.395-2.128 3.646-2.916 1.115-.701 2.635-2.445 3.645-.729-1.845,1.317-5.157,3.099-5.466,4.738 1.9-1.137 5.241-.833 6.56-2.552 .474.904-1.069,1.512 0,1.822 2.009-2.364 5.597-3.149 5.102-8.019 2.816-7.163 3.556-15.281 2.916-24.418-1.34-2.184-2.184-4.862-2.916-7.654-1.477.996-1.432,2.999-2.551,4.374-.788.967-2.57,2.167-3.645,2.916-1.717,1.196-3.783,2.462-5.466,2.551 .709-2.568 3.662-3.168 5.466-4.738s2.501-3.706 3.645-5.831h1.458c-1.411-2.72-3.655-4.605-7.654-4.738-2.705,2.033-4.082,5.393-6.561,7.654-.142,4.315-3.919,7.007-5.466,10.569-.236.543-.937.744-1.095,1.094-.399.889-.318,2.228-.728,3.279-.417,1.071-1.227,1.952-1.458,2.916-.407,1.691.469,3.7-.729,5.466-.14,1.354 1.477.953 1.093,2.552-.815,1.856-2.115,3.229-1.822,6.196-1.254,1.905-2.397,3.921-2.187,7.289-4.308,4.031-1.834,12.733-2.916,19.681-1.958-.621-1.274,1.397-2.916,1.093-1.679-.143-1.716-1.928-3.28-2.187-.798.781-2.024,1.134-2.551,2.187 5.562,2.579 11.77,4.511 17.13,7.29 .78-2.135 2.53-3.302 3.644-5.103 2.545-.25 2.604-2.984 5.832-2.552 .252-1.467-1.534-.895-1.458-2.187-.005-.533 1.537-1.154 0-1.094-1.38-.042-.542,2.131-1.821,2.188-5.666.076-5.345-5.834-6.925-9.841 .037-.933 1.358-.583 1.822-1.091zm-247.469-9.84c.163-2.847-2.588-3.18-3.645-4.373-.48-.543-1.313-2.294-1.823-3.28-1.091-2.112-.885-3.883-1.458-6.926-.363-.486-.985-.716-1.094-1.456 .832-1.573-.029-4.579-.364-6.197-.296,3.572-.962,6.749 0,9.84-.966-.116.341,2.042-1.094,1.458-1.229-3.623-1.425-10.796-1.093-16.765 .207-3.711.448-5.879 2.916-6.196 .162,2.036-1.698,9.232.364,10.933 1.046-2.841.634-7.141 1.093-10.569-1.4-.757-3.368-2.581-4.737-2.187-1.145,5.538-1.78,11.583-1.822,18.224 .003.48.639.332.729.728-.662,2.788-.645,7.891.364,10.205-.061.426-.576.396-1.093.364 .681,1.75 1.858,3.001 4.008,3.28 1.426,1.733 2.447,3.872 3.645,5.832 .237-1.829-.478-4.609.364-5.832 .485.852.62,2.054 1.094,2.916 .803-.532-.214-2.887 1.093-2.916 1.519.305 1.648,1.999 2.553,2.917zm-3.644-33.167h-1.458c-.579,1.696 1.883,1.266 1.458,0zm-1.094,13.485c2.096-.82.044-1.764.365-3.644 1.436-.821.754-1.748.729-3.645h1.093c-.319-2.75 1.474-3.385 1.822-5.466-.413-.352-2.405-.952-2.551-.364 .464,3.867-1.999,7.961-1.458,13.119zm199.723-8.747c-1.115.001-2.642-1.46-3.645-.364 1.107.007 2.924,1.181 3.645.364zm7.29,4.375c-3.598-2.357-9.984-1.922-13.849-4.01 2.03,3.681 9.395,3.965 13.849,4.01zm-52.117.364c1.39-.327.801-2.954-1.095-2.186-.013,1.107-.211,2.397 1.095,2.186zm-148.336.364c-1.123,2.183 1.349,1.785 0,0zm203.004,3.644c-2.136-2.358-6.339-2.65-10.205-3.28 1.771,2.725 6.652,2.34 10.205,3.28zm-219.405-2.55c-.466-.02-.504-.466-1.093-.364-.567.896 1.239,1.071 1.093.364zm157.447,2.55c-.733,2.427-3.816,2.501-4.738,4.738 2.751,5.754 14.785,2.225 14.942,10.57-1.836,3.387-8.448,1.999-8.746,6.925 4.474,3.632 8.732-2.714 12.026-2.552 .168,2.598-2.28,2.579-3.645,3.645-.615,1.813-3.388,1.472-4.008,3.28 1.453-.36 1.097,1.089 2.55.729 4.027-1.198 6.282-4.167 8.748-6.925-.063-1.643-.178-3.337 1.457-3.28 .1,3.052.421,5.938-.364,9.476-1.162,5.244-6.897,9.654-1.093,11.662 3.762-4 6.829-11.332 6.561-18.587-.056-1.461-1.617-2.719 0-4.009 2.379-.146 2.544,3.141 2.915,5.103 .923,4.863.344,10.327 3.28,12.391 1.521.186 1.843-.829 2.916-1.092 .459-4.208-1.389-7.754-1.822-11.663-.423-3.799.729-7.396.729-11.663-5.598-2.664-13.193-3.328-19.68-5.102-.03-1.187-.467-1.965-1.458-2.188-3.912,1.121-7.319-.771-10.57-1.458zm54.305,1.822h4.373c1.341.471 4.176,3.239 5.104.729-3.63-.259-5.744-2.032-9.477-2.186v1.457zm-201.182,3.647c-.458-1.597.819-4.785-.364-4.738-.597,1.359-.45,3.73.364,4.738zm-10.57,0c.021-.224.055-.433.365-.366 .222-.02.432-.054.364-.364-.967.117.341-2.041-1.093-1.458 .21.641-.44,2.142.364,2.188zm212.845,0c3.2.206 6.26,2.481 9.477,1.458-2.494-1.76-5.271-3.233-9.477-3.28v1.822zm-201.91,1.821c.21-.222.853-1.729 0-1.821-.211.219-.854,1.727 0,1.821zm202.275,2.916c3.726-.203 6.535.511 9.111,1.457-.417-1.146.571-.885.729-1.457-2.962-1.293-6.236-2.269-9.841-2.916 .001.972.001,1.943.001,2.916zm-213.574,0c-.228-.866-.49-1.696-1.458-1.823 .326.768.011,2.176 1.458,1.823zm215.76,1.822c-.604-.005-2.237-.574-2.187.729 2.975.913 5.673,2.102 9.476,2.187-.25-2.134-4.637-2.895-7.289-2.916zm-146.513,6.561c.009.028.334-.024.366,0-.512-2.283-1.131-4.458-3.28-5.104 .73,2.094 2.521,3.568 2.914,5.104zm143.962-2.188c1.359.153 2.692.012 4.01.364 2.062.553 4.312,3.202 5.831,1.094-2.679-1.573-6.367-2.137-9.841-2.916v1.458zm35.353,4.01c1.352.137 2.485.056 2.551-1.094-1.499.163-1.131-1.542-2.916-1.094-.264,1.114.372,1.329.365,2.188zm-236.535,1.822c-.016-.502.172-.801.365-1.094-.502.016-.8-.172-1.093-.364 .049.679.239,1.218.728,1.458zm3.645-.729c-.293,2.206 1.671.243 0,0zm188.79,6.196c-3.58-1.279-6.977-2.741-9.475-5.103-1.585.738-2.62-2.15-2.916-.364 3.512,2.199 8.104,5.258 12.391,5.467zm-194.986,6.924c.889.964 2.924,2.993 4.009,3.28 .878.233 4.432.625 5.103-1.094-7.103-1.645-10.437-7.057-11.663-14.577h-2.551c.421,3.612 2.242,9.293 5.102,12.391zm2.187-8.018c-.056-1.767-.703-2.942-1.458-4.009-.032,1.855.483,3.161 1.458,4.009zm4.738,4.01c-2.713.16-2.717-2.387-4.009-3.645-.5,2.129 2.092,5.667 3.645,6.925-.11-.09 1.566.854 1.093.728 2.415.638 4.105-.57 5.104-1.458 1.42-1.263 3-3.824 3.644-5.102-2.951-.866-4.915,1.368-6.195-1.458 .439-.566 1.164-1.42.364-2.187-1.185.615-1.049,2.104-2.551.729 .151,2.406 3.884,3.154 2.551,5.832-1.661-2.576-4.506-4.426-6.196-6.925-.392-.579.081-1.627-1.093-1.458-.824,3.057 3.578,5.858 3.643,8.019zm180.042-3.28c3.435,1.651 6.919,3.328 10.57,4.738 .528,1.377-1.001.698-.729,1.822 1.199.393 3.199,1.886 4.374,1.092-1.427-.639-3.418-.712-3.28-2.914 2.133.54 2.971,2.375 5.831,2.187-1.172-1.393-3.094-1.881-4.737-2.553-1.867-.762-3.325-1.738-5.102-2.55-.506-.23-1.299.187-1.824,0-.246-.089-.467-.966-.729-1.094-1.543-.754-3.913-1.056-5.466-1.822-.676-.333-1.319-1.569-2.188-1.458h-.728c.502,1.667 2.586,1.866 4.008,2.552zm13.121.728c-2.109-.932-4.646-3.366-7.289-2.551 2.88.162 4.913,3.098 7.289,2.551zm-14.943.364c1.201,1.236 4.031,2.766 5.833,2.188-2.642-.762-4.547-2.258-7.291-2.916-.366,1.097.812.646 1.458.728zm23.691,6.196c-.732-2.27-3.642-2.15-5.468-2.916-1.85-.773-3.489-2.508-5.831-2.186-.226-.653-1.96-1.646-2.188-1.095 4.031,2.362 10.017,4.463 13.487,6.197zm-22.961-4.008c-.466-.074-1.785-1.06-1.822-.364 .431.106 1.377,1.467 1.822.364zm19.316-.364c-2.112-1.053-.959.898 0,0zm1.458,1.093c.876-.875-1.195-.943-1.093-.364-.006-.027 1.233.224 1.093.364zm-18.224.363c-.93.282-1.676-1.425-2.186-.363 .587.06 1.879,1.222 2.186.363zm8.019,1.822c-.517-1.556-3.602-2.461-5.103-1.822 1.868.441 3.192,1.427 5.103,1.822zm20.046-.364c.689.404 1.721.466 2.552.73-.215-1.123-.094-2.581-1.458-2.552-.33.644-.882,1.064-1.094,1.822zm-22.596,1.095c-.939-1.015-3.806-2.016-4.738-1.822 1.507.677 2.449,1.922 4.738,1.822zm73.255,1.458c.037,1.179 1.653.777 1.094,2.55 2.346-.933 3.923-2.636 4.374-5.466-.467-.021-.505-.467-1.094-.364-.892.953-3.09,1.744-4.374,3.28zm-51.024,1.822c-2.303-.736-4.377-1.699-6.561-2.553 .439,1.299 2.527,1.51 2.916,1.822-.062.547.13,1.346-.364,1.458-1.475.018-1.64-1.275-2.916-1.458-.269,1.819.143,2.065-.729,3.28-3.117-1.138-6.703-3.741-9.841-3.645 3.193,1.667 7.012,2.709 10.206,4.374 .366-.484.345-1.356 1.093-1.458 .945,1.476 1.088-.153 2.188-.364 .421,1.279 3.205.197 3.279,1.822-.891.324-1.581.85-2.915.729-.134,1.106 1.187.757 1.822,1.094-.167-1.381 1.116-1.312 1.822-1.822 1.68.526 3.649.95 3.28,2.551 1.518-.06 1.832,1.084 2.916,1.458-.504-1.475.791-1.152.729-2.187-.948.218-1.312-.146-1.095-1.094 2.894.146 5.364.711 5.469,3.645 2.287.196 2.958-.1 5.102-.364-.45,1.18 1.18.279.729,1.458 4.121.983 6.498,3.708 10.935,4.374 .629.221-.028,1.729.729,1.822 4.643-1.239 5.729,4.229 8.019,6.561-.018-1.353 1.783-.889 1.822-2.188-2.164-.995-4.189-2.127-3.645-5.831-1.021-.42-1.895-.42-2.916,0-6.09-3.022-13.343-4.881-18.952-8.383 .033-.574.93-.285.729-1.094-.545.007-1.49-1.354-1.822-.364 .442-.11 1.256,1.053.364,1.094-4.11-.384-5.904-3.085-10.204-3.28 .082-.73-1.626-1.476-.364-2.188 1.038-.041 1.923,1.932 2.916.73-3.401-1.582-7.996-3.909-11.299-4.375 1.814,1.829 6.365.925 6.558,4.376zm-20.775-2.917c1.564.267-2.816-.481 0,0zm11.663,2.553c.088-1.523 1.355.412 1.823-.73-1.424-.409-3.131-2.445-4.374-1.822 1.143,1.237 1.981.628 2.551,2.552zm49.203.727c1.26-.288 1.539.406 2.186.729-.536-1.892-1.325-3.533-3.279-4.009-.139,1.597 1.041,1.875 1.093,3.28zm-17.495.729c1.898-.562 1.2,1.474 2.552,1.458 .622-.804.269-2.967-1.094-2.914-.33.641-1.342.601-1.458,1.456zm-177.856,4.374c1.354.227 1.667,1.492 3.645,1.094 .92,1.209 3.248,1.245 4.738,1.822 .822.319 1.482,1.881 1.458.364-3.852-2.101-7.265-4.642-10.935-6.925-.25,1.831 1.465,1.695 1.094,3.645zm133.756-.365c1.292.888 2.9.351 4.738,1.094 .728.293.539,1.124 1.093,1.457 .342.205 1.072-.115 1.458,0 1.027.309 3.442,2.013 4.01-.729-2.885-2.461-7.455-3.236-10.935-5.103-.61.606-.289,2.141-.364,3.281zm12.392,0c-.874-1.804-4.625-2.657-6.195-2.552 1.966.951 4.185,1.648 6.195,2.552zm4.01-1.458c-1.474-1.281-.861,1.173 0,0zm47.743,13.122c1.386-.97 6.099-7.446 5.468-9.477-1.223-3.928-6.965-.263-8.018,2.552 4.316-1.367 5.055,6.114 1.092,5.831 .103-1.233.581-2.093.366-3.645-.906-.431-2.146-.527-3.28-.729-1.044,2.737-.803,5.354 1.458,6.561 .471-.339 2.182-.582 2.914-1.093zm-41.183-10.57c-.124-.296-.969-.44-1.094,0-.242.844 1.424.788 1.094,0zm-22.962.364c-.412-.044-1.788-.614-1.822.729 1.008,1.028 3.575,1.688 5.467,2.552 1.62.738 3.084,2.049 4.738,2.551 .203-.889 1.41-.776 1.094-2.187-3.526.031-6.526-3.334-9.477-3.645zm23.691.729c2.371,1.19 1.477-1.041 0,0zm2.552.729c3.614,1.851 7.741,3.191 11.297,5.103h2.188c.763.452 1.37,1.06 1.822,1.822 2.597-.022 5.2,3.345 7.289,1.458-2.064-.731-3.957-1.632-5.467-2.916-1.605.027-2.509-.648-3.645-1.094 .08-1.333.501-1.398 0-2.551-1.929-.592-1.141,1.532-2.916,1.093-2.458-1.554-5.403-2.261-8.382-4.009 .31,2.67-1.834.417-2.186,1.094zm-28.794,1.458c-.327.645-.879,1.064-1.092,1.822 1.603,1.19 3.567,2.021 6.194,2.187 .586,1.407 3.138,2.897 4.374,1.458-1.593-3.388-5.893-4.069-9.476-5.467zm-203.004,1.457h.729v-.729h-.729v.729zm287.924,10.571c-.729-1.333.027-1.449 1.094-1.822-.033-3.434 1.779-5.024 2.551-7.654-2.829,1.134-5.084,6.476-3.645,9.476zm-87.471-8.747c-.154.694-1.041.659-.728,1.822 2.789.368 4.479,1.837 6.924,2.551v1.458c-3.004-.642-5.812-1.479-7.653-3.28-.31.542-1.174.527-1.822.729 .916,2.607 5.562,1.484 5.83,4.738-4.984-.271-5.914-4.738-11.662-3.28 .68,1.492 2.709,1.822 4.374,2.552 1.571.688 3.568,2.121 5.102,2.187 2.059.088 5.157-2.195 6.561-2.916 1.265-.649 1.994-1.033 2.552-2.187-2.964-1.656-6.263-2.973-9.478-4.374zm83.826,3.644c-.791-.062-.165,1.292-.364,1.822 1.518-1.398 2.175-3.655 3.28-5.467-2.468-.281-1.311,3.062-2.916,3.645zm-2.186-1.822c.635-.028 1.134.081 1.458.364 .306-.424.481-.978.364-1.822h-1.094c-.189.539-.539.919-.728,1.458zm-275.168,1.822c.062-.546-.129-1.346.365-1.458 .287,1.623-.249,2.424-.729,3.28 2.055,4.03-1.079,8.443-.729,13.121h1.458c.925-.261-.881-2.081.729-2.188 .501.016.8-.17 1.093-.363 2.177,2.926 3.721,6.483 5.103,10.204 2.686-2.537 2.821-7.627 5.102-10.568-.192-1.196-1.161-2.463-1.457-2.916-.516-.791-.723-2.373-1.094-2.916-.748-1.096-2.372-1.835-3.28-2.915-1.85-2.197-3.265-5.493-6.925-5.103 .198.529-.427,1.884.364,1.822zm271.523,0c-.193,1.386-1.065,2.093-1.458,3.28 1.089,1.044 1.08-1.062 2.551-.729-.062-1.464.965-2.903-.364-3.645 .058,1.384.012,2.311-.729,1.094zm14.214,0c.906.343.106-2.087 0-.729 .032.595-.608,1.586 0,.729zm-36.081,2.187c.019,3.97.499,16.883 6.195,14.213 1.634-4.331.213-8.813-1.822-11.662-.896-1.255-2.039-2.804-3.645-2.551h-.728zm-154.896,6.925c.159-1.254-.144-2.043-.364-2.916-2.771-.145-3.729-2.102-5.103-3.645-.653,3.333 2.576,5.59 5.467,6.561zm147.241-5.103c.148,4.347 1.39,7.6 1.458,12.026 2.346-.4 1.598,2.29 4.373,1.458-.435-4.216-.099-15.729-5.831-13.484zm-52.481,1.458c-1.458-.243-2.498-.905-3.646-1.458 .291,1.182 2.72,2.121 3.646,1.458zm94.03.729c-.396-.934 1.106-1.737 0-2.187-.286.253-.81,2.034 0,2.187zm-17.859,2.916c-2.113-1.165-2.702-3.858-6.196-3.645-1.611,2.472-.665,6.371.366,9.11 1.202,3.195 4.605,8.24 8.017,8.748 2.473-1.382-1.013-4.954 1.824-5.832 1.656.894 2.195,2.905 4.736,2.916 1.904-2.372-1.399-9.378-2.551-11.662-1.31-2.598-1.788-3.98-5.103-3.645-.847,1.029.96,3.634-1.093,4.01zm9.841-2.187c1.062.534 1.062-1.629 0-1.094v1.094zm2.916,2.916c1.177-.18 1.233-2.252.364-2.552 .212,1.184-.249,1.696-.364,2.552zm-4.01-.729c.804.594 2.012-.045 1.094-.729-.505,1.356-.056-1.072-.729-.729-.115.493-.518.696-.365,1.458zm8.019,1.093c-.482-.005-.333-.639-.729-.73-.418.749.572,1.738.729.73zm-43.372,2.55h1.094v-1.092h-1.094v1.092zm-4.008,5.833c.79.061.165-1.294.364-1.822h-1.094c.162.688-.495,2.196.73,1.822zm13.121,1.457c1.224-.112 3.159.487 2.915-1.094-1.445-.107-2.228.446-2.915,1.094zm-51.39,1.459c1.89.309 2.646-.514 2.916-1.824-1.748-.168-2.86.301-2.916,1.824zm25.876,1.456c.472-.744 2.046-.384 2.188-1.456-.856-.117-1.369-.576-2.552-.366 .2.53-.425,1.885.364,1.822zm-223.412,1.094c3.497,3.549 5.066,9.025 5.466,15.672 1.548-1.326 1.208-3.819 1.094-5.467-.277-3.978-2.912-8.072-4.009-11.663h-2.187c.081.69-.412.804-.364,1.458zm100.954,7.654c.548-3.948-3.382-3.421-4.008-6.196 .665,2.737 1.924,4.879 4.008,6.196zm43.735-1.458c1.779,2.352 3.384,4.876 6.561,5.831-.848-3.161-3.398-4.62-3.28-8.747-2.112-.047-2.387,1.742-3.281,2.916zm-139.587,14.944c-.302-.952 1.102-2 0-2.552 .001.651-.982,2.12 0,2.552z" fill-rule="evenodd"/>
 <path d="m14.644,211.723c4.349-1.154 4.961,4.487 7.289,6.56 .846,1.221 2.689,1.442 2.187,4.009-3.481-1.256-5.41-4.065-7.653-6.559-.765.101.528.973-.365,1.456-5.771.087-6.053-7.175-4.738-12.026 4.406,1.023.612,8.817 4.374,10.935 1.327-1.882-1.542-2.213-1.094-4.375z" fill-rule="evenodd"/>
</svg>
