<?xml version='1.0' encoding='utf-8'?>
<svg xmlns="http://www.w3.org/2000/svg" version="1.1" id="Contours" x="0px" y="0px" width="698.523132" height="306.082428" mViewBox="0.000000 0.000000 698.523132 306.082428" stroke="black" fill="none" stroke-linecap="round" stroke-linejoin="round"> <desc> </desc> <path d="M285.4 208.0 C306.1 205.8 325.6 194.1 337.3 176.9 C349.0 159.7 352.7 137.3 347.2 117.3 C333.5 120.5 319.7 123.8 306.0 127.0 C304.4 124.4 302.7 121.7 302.9 118.6 C303.0 115.6 306.0 112.6 308.8 113.6 C308.5 117.6 310.3 121.8 313.4 124.4 C311.7 118.6 314.0 111.7 319.0 108.3 C321.8 110.9 319.0 116.7 315.1 116.1 C318.3 117.3 321.5 118.4 324.6 119.6 C325.5 116.1 325.2 112.3 324.0 109.0 C326.6 108.5 329.1 108.0 331.7 107.5 C331.7 111.8 333.7 116.0 337.1 118.7 C336.9 114.7 336.7 110.8 336.5 106.8 C338.9 104.9 342.1 104.2 345.1 104.8 C343.3 108.5 346.4 113.6 350.5 113.7 C348.2 108.3 349.4 98.7 355.0 100.6 C351.9 99.5 348.8 98.3 345.7 97.1 C354.0 95.2 362.3 93.4 370.7 91.5 C370.9 96.3 372.7 101.0 375.7 104.7 C376.7 101.1 376.9 97.2 376.1 93.5 C378.8 95.7 383.4 94.7 385.0 91.6 C381.2 93.3 376.5 92.8 373.1 90.4 C377.3 88.0 382.4 87.2 387.2 88.1 C387.1 92.6 388.0 97.1 389.7 101.3 C394.6 96.8 401.4 94.6 407.9 95.5 C407.4 90.8 406.9 86.2 406.4 81.5 C416.8 79.8 427.1 77.0 437.0 73.2 C438.1 77.0 434.1 81.4 430.2 80.6 C432.8 82.0 436.4 81.6 438.6 79.5 C438.7 82.7 440.3 85.7 442.8 87.6 C443.2 81.1 441.8 74.6 438.7 68.9 C427.7 75.4 414.6 78.4 401.9 77.1 C413.3 73.7 424.7 70.4 436.2 67.0 C425.2 67.7 414.2 69.6 403.6 72.7 C413.0 64.4 426.9 61.5 438.8 65.3 C440.7 60.9 433.3 59.1 428.7 60.2 C392.0 68.8 355.4 77.4 318.7 86.0 C316.3 83.9 320.3 80.5 323.5 79.7 C404.5 60.7 485.5 41.7 566.5 22.7 C569.2 34.2 573.6 45.3 579.6 55.6 C578.2 47.1 576.8 38.7 575.4 30.3 C574.9 27.2 574.4 23.8 575.9 21.1 C577.6 17.9 581.4 16.5 584.9 15.5 C615.2 6.6 646.6 1.4 678.1 0.0 C692.0 11.2 698.5 30.9 694.1 48.2 C685.3 52.2 675.1 53.0 665.9 50.3 C668.7 53.6 664.4 58.8 660.1 58.8 C655.8 58.9 652.1 56.0 648.2 54.2 C644.3 52.3 638.9 51.7 636.3 55.2 C639.9 54.9 642.9 59.1 641.5 62.4 C633.6 60.1 625.6 57.9 617.7 55.6 C617.5 58.6 617.3 61.5 617.2 64.5 C604.4 61.3 591.5 58.1 578.4 58.2 C565.0 58.3 551.9 61.8 539.0 65.2 C490.4 78.2 441.8 91.1 393.2 104.0 C383.8 106.5 374.2 109.2 366.5 115.0 C358.8 120.9 353.4 130.8 355.7 140.2 C361.1 161.5 355.0 185.1 340.7 201.6 C326.3 218.2 304.1 227.5 282.2 226.7 C269.9 226.3 257.5 222.9 245.4 225.1 C226.8 228.6 213.3 244.1 200.0 257.6 C181.8 276.1 160.1 292.6 134.7 297.8 C94.2 306.1 51.8 282.6 29.0 248.2 C6.1 213.8 0.0 170.6 1.8 129.4 C2.3 116.6 3.6 103.8 7.9 91.8 C16.4 68.4 36.4 50.1 59.7 41.3 C82.9 32.5 109.0 32.6 133.0 39.0 C154.8 44.9 177.0 55.8 198.8 50.1 C211.8 46.8 222.6 37.9 234.4 31.5 C253.7 21.2 277.3 17.8 297.9 25.3 C318.4 32.8 334.9 52.2 336.0 74.1 C330.5 55.0 316.1 38.7 297.9 30.7 C279.7 22.8 257.9 23.3 240.1 32.2 C224.9 39.8 212.2 53.3 195.4 56.3 C181.3 58.8 167.1 53.3 153.3 49.0 C128.1 41.2 101.1 37.1 75.2 42.5 C49.4 47.9 24.9 63.9 13.9 87.9 C6.6 103.7 5.5 121.5 5.4 138.9 C5.3 171.0 8.5 204.1 23.3 232.6 C38.2 261.1 66.7 284.3 98.8 285.1 C133.6 285.9 163.6 261.7 188.6 237.4 C199.9 226.5 211.6 214.8 226.6 210.0 C245.4 204.1 265.8 210.0 285.4 208.0 M550.4 59.2 C550.7 56.8 551.0 54.5 551.3 52.2 C553.9 51.1 556.5 50.1 559.2 49.1 C556.2 48.9 553.3 49.4 550.5 50.5 C550.0 49.3 549.5 48.1 549.0 46.9 C555.5 44.5 562.0 42.2 568.5 39.9 C561.4 41.0 554.3 42.0 547.2 43.1 C547.1 40.0 546.9 36.9 546.7 33.8 C552.5 34.5 558.5 32.7 563.0 29.0 C556.7 31.0 550.2 32.2 543.6 32.7 C542.5 36.7 543.5 41.3 546.3 44.4 C531.4 48.1 516.6 51.8 501.7 55.5 C500.9 52.5 500.0 49.4 499.2 46.3 C503.8 44.8 508.5 43.2 513.2 41.7 C489.1 46.0 465.3 51.4 441.8 57.8 C445.6 59.4 450.3 58.9 453.7 56.4 C453.5 59.9 454.2 64.5 457.7 65.1 C456.2 61.9 457.9 57.9 460.7 55.8 C463.5 53.7 467.1 53.0 470.6 52.3 C479.1 50.7 487.6 49.1 496.1 47.5 C497.0 56.0 499.2 64.4 502.8 72.2 C503.3 68.2 504.2 63.5 507.8 61.4 C505.6 62.7 502.3 60.5 502.6 58.0 C508.9 55.0 516.1 53.9 523.0 55.0 C518.4 57.1 513.8 59.3 509.2 61.4 C514.0 61.7 519.0 60.4 522.9 57.7 C522.3 60.6 524.0 63.8 526.8 64.8 C527.2 60.8 526.6 56.8 525.1 53.0 C532.0 51.0 539.0 48.9 545.9 46.9 C545.6 51.4 547.3 55.9 550.4 59.2 M612.2 40.9 C610.2 40.0 607.3 39.0 606.2 40.9 C605.1 43.2 602.1 43.5 599.7 44.2 C597.2 44.8 594.4 46.8 595.2 49.2 C597.6 50.7 600.7 50.4 603.6 50.1 C624.6 47.8 645.7 45.4 666.7 43.1 C667.8 43.0 669.1 42.4 668.9 41.4 C668.8 41.1 668.4 40.8 668.1 40.5 C663.6 36.9 657.4 33.1 652.5 36.2 C646.6 39.7 639.1 40.3 632.7 37.6 C631.6 37.1 630.3 38.1 629.3 38.8 C624.6 42.5 617.7 43.3 612.2 40.9 M645.5 12.0 C639.4 16.7 630.6 17.5 623.8 14.0 C622.8 16.1 623.4 18.8 625.1 20.3 C616.8 19.2 608.3 19.8 600.3 22.2 C593.4 24.2 586.8 27.0 580.7 30.6 C582.2 31.1 583.8 31.0 585.4 30.9 C592.4 30.2 599.4 29.4 606.4 28.2 C625.0 25.2 643.2 20.3 661.9 17.4 C662.0 15.4 659.9 14.1 658.1 13.2 C654.1 11.1 649.0 9.2 645.5 12.0 M480.8 67.1 C479.7 66.5 479.8 64.9 480.6 64.0 C481.4 63.1 482.6 62.7 483.8 62.4 C488.5 61.2 493.2 59.9 497.9 58.7 C493.2 57.1 488.0 58.3 483.1 59.5 C470.1 62.7 457.0 66.0 443.9 69.3 C442.9 69.4 442.8 71.2 443.7 71.4 C445.6 72.8 448.2 71.4 450.4 70.5 C452.6 69.6 455.9 69.7 456.4 72.0 C456.9 74.6 457.4 77.2 457.9 79.8 C458.0 80.5 458.2 81.4 458.8 81.9 C460.6 83.4 462.9 80.3 462.3 78.1 C461.7 75.9 459.9 74.0 460.0 71.7 C460.1 68.4 463.9 66.6 467.1 66.3 C470.4 66.0 473.9 66.4 476.6 64.5 C477.9 68.6 479.2 72.6 480.5 76.6 C483.2 75.1 486.1 73.9 489.1 73.0 C486.7 72.5 484.1 72.4 481.6 72.6 C480.5 71.8 482.0 70.2 483.3 69.7 C487.6 68.1 492.0 66.5 496.4 64.9 C491.1 64.7 485.8 65.5 480.8 67.1 M424.9 91.6 C424.5 88.3 424.1 85.1 423.7 81.8 C417.9 82.2 412.3 83.9 407.2 86.6 C411.5 87.9 416.5 86.8 419.8 83.7 C420.2 86.9 422.2 89.9 424.9 91.6 M522.1 40.0 C523.1 39.7 524.1 39.3 525.1 39.0 C523.3 38.5 521.3 38.3 519.4 38.6 C519.8 41.4 519.1 44.3 517.5 46.7 C522.9 47.2 528.6 45.7 533.1 42.6 C529.6 42.9 526.1 43.2 522.6 43.6 C522.1 42.5 521.9 41.2 522.1 40.0 M588.0 45.0 C587.1 46.1 586.8 47.7 587.2 49.1 C587.9 49.6 588.8 49.7 589.6 49.5 C591.0 47.7 591.5 45.3 591.1 43.0 C589.8 42.3 587.9 43.6 588.2 45.1 M420.4 90.5 C417.1 89.2 413.0 89.9 410.4 92.3 C413.7 93.3 417.6 92.6 420.4 90.5 M357.1 105.9 C355.6 105.7 354.1 105.6 352.6 105.5 C352.1 106.6 351.9 107.8 352.1 109.0 C354.4 109.7 357.0 108.4 357.9 106.3 M535.7 36.5 C536.5 36.9 537.7 36.6 538.2 35.8 C534.0 35.7 529.9 36.5 526.0 38.0 C529.1 39.2 532.9 38.6 535.5 36.4 M338.7 112.3 C340.4 112.1 342.0 111.8 343.6 111.6 C344.1 110.8 344.3 109.9 344.1 109.1 C341.9 108.6 339.5 109.4 337.9 111.0 " fill="#000000" stroke="none"/> <path d="M133.6 141.4 C135.4 141.6 137.3 141.8 139.1 141.9 C137.1 143.9 134.3 144.9 131.5 144.6 C131.7 143.4 132.5 142.2 133.7 141.6 " fill="#000000" stroke="none"/> <path d="M283.6 111.5 C285.4 111.5 287.2 112.5 288.1 114.1 C285.9 115.5 283.2 116.0 280.6 115.5 C280.1 114.8 280.0 113.9 280.1 113.1 C281.3 112.7 282.5 112.2 283.7 111.8 " fill="#000000" stroke="none"/> <path d="M294.7 109.7 C296.6 108.8 298.6 111.4 298.0 113.4 C295.7 112.8 293.1 113.6 291.5 115.3 C291.0 113.9 290.6 112.5 290.2 111.1 C291.4 110.1 293.0 109.5 294.6 109.5 " fill="#000000" stroke="none"/> <path d="M345.3 97.8 C343.8 101.6 338.8 103.6 335.1 101.9 C334.4 101.5 333.7 100.7 334.2 100.2 C337.4 97.9 341.5 97.0 345.3 97.8 " fill="#000000" stroke="none"/> <path d="M326.6 105.6 C325.3 105.6 323.9 105.6 322.6 105.6 C322.1 104.7 321.9 103.7 322.1 102.7 C324.8 102.3 327.5 101.4 329.9 100.1 C330.9 101.5 331.4 103.4 331.1 105.1 C329.6 104.6 327.9 104.7 326.6 105.6 " fill="#000000" stroke="none"/> <path d="M196.1 142.1 C199.9 140.3 204.0 139.1 208.1 138.6 C209.9 138.4 212.6 139.3 212.0 141.0 C208.3 143.0 204.3 144.2 200.2 144.6 C198.3 144.7 195.7 143.9 196.1 142.1 " fill="#000000" stroke="none"/> <path d="M200.6 121.6 C197.6 122.2 194.6 122.8 191.7 123.3 C194.2 118.9 199.5 116.1 204.6 116.7 C205.1 116.7 205.6 116.8 206.0 117.1 C207.2 118.0 206.6 120.1 205.4 120.8 C204.1 121.5 202.5 121.3 201.0 121.1 " fill="#000000" stroke="none"/> <path d="M207.1 127.1 C201.9 129.1 196.3 130.3 190.7 130.5 C194.4 125.9 200.8 123.6 206.6 124.7 C207.1 125.4 207.3 126.3 207.1 127.1 " fill="#000000" stroke="none"/> <path d="M389.2 93.9 C393.3 91.3 397.9 89.6 402.6 89.1 C403.0 90.3 403.4 91.6 403.8 92.8 C399.3 94.9 394.0 95.3 389.2 93.9 " fill="#000000" stroke="none"/> <path d="M195.6 111.3 C200.6 109.2 206.1 108.3 211.5 108.7 C207.3 113.7 200.0 114.5 193.5 115.0 C192.3 113.8 194.0 111.9 195.6 111.3 " fill="#000000" stroke="none"/> <path d="M203.8 131.9 C205.1 131.6 206.4 131.4 207.6 131.9 C208.4 132.3 209.0 133.1 209.2 133.9 C203.2 136.6 196.5 137.9 189.9 137.6 C194.2 135.0 198.9 133.0 203.8 131.9 " fill="#000000" stroke="none"/> <path d="M302.1 111.1 C301.2 111.0 300.9 109.7 301.4 108.9 C301.9 108.1 302.9 107.8 303.7 107.5 C307.3 106.4 310.9 105.3 314.5 104.2 C315.6 103.9 316.7 103.5 317.7 103.9 C318.7 104.2 319.5 105.5 318.9 106.4 C318.6 106.9 318.0 107.1 317.5 107.2 C315.5 108.0 313.5 108.7 311.5 109.4 C311.3 108.1 309.8 107.2 308.6 107.6 C308.6 110.6 304.6 112.8 302.1 111.1 " fill="#000000" stroke="none"/> <path d="M222.4 100.3 C229.7 93.3 241.0 90.7 250.7 93.7 C241.8 97.9 232.1 100.1 222.4 100.3 " fill="#000000" stroke="none"/> <path d="M297.6 92.3 C300.9 93.4 304.3 93.8 307.7 93.6 C307.9 90.4 308.1 87.3 308.3 84.1 C309.7 81.8 313.4 83.7 314.6 86.1 C315.7 88.5 316.1 91.6 318.4 93.0 C311.9 95.0 305.3 96.8 298.6 98.4 C297.1 96.8 296.7 94.3 297.6 92.3 " fill="#000000" stroke="none"/> <path d="M90.9 129.2 C94.0 142.5 97.2 155.7 100.3 169.0 C101.3 173.1 102.1 177.9 99.3 181.0 C97.0 170.4 94.7 159.8 92.4 149.2 C91.0 142.6 89.6 135.8 90.9 129.2 " fill="#000000" stroke="none"/> <path d="M398.7 70.6 C399.2 71.6 399.3 72.9 399.1 74.0 C397.4 74.7 395.7 75.4 394.1 76.1 C396.4 76.7 398.8 76.8 401.1 76.5 C401.5 80.6 401.8 84.6 402.2 88.7 C400.7 86.5 397.3 87.8 394.7 88.7 C392.2 89.6 388.1 88.5 388.9 85.9 C392.6 85.1 396.2 83.8 399.6 82.0 C396.4 80.1 392.1 80.6 389.3 83.0 C387.6 82.8 387.6 80.1 388.9 78.9 C390.2 77.7 392.1 77.4 393.4 76.4 C391.4 76.3 389.4 76.3 387.4 76.3 C387.3 75.0 387.2 73.7 387.0 72.5 C390.9 71.8 394.8 71.2 398.7 70.6 " fill="#000000" stroke="none"/> <path d="M329.8 88.4 C329.9 87.7 330.1 87.0 330.2 86.2 C342.7 83.4 355.1 80.5 367.6 77.7 C368.9 78.1 369.6 80.1 368.7 81.2 C351.8 85.2 334.9 89.2 318.0 93.3 C319.4 88.6 325.5 86.0 329.8 88.4 " fill="#000000" stroke="none"/> <path d="M218.1 98.3 C212.6 103.6 204.8 106.5 197.1 105.8 C202.5 93.9 212.7 84.3 224.8 79.6 C237.0 74.9 251.0 75.2 263.0 80.5 C267.4 82.4 271.6 85.0 276.3 86.3 C275.5 88.5 272.8 89.4 270.5 89.9 C265.0 91.1 259.2 92.3 253.9 90.4 C241.8 86.1 227.3 89.2 218.1 98.3 " fill="#000000" stroke="none"/> <path d="M382.7 74.0 C383.3 76.0 383.8 78.0 384.1 80.1 C380.7 77.8 375.6 78.5 372.9 81.7 C377.2 81.9 381.4 82.1 385.7 82.3 C382.9 84.7 379.2 85.6 375.6 86.5 C350.6 92.4 325.7 98.3 300.7 104.2 C299.6 103.1 300.1 101.1 301.3 100.2 C302.5 99.3 304.1 99.1 305.6 98.9 C313.3 98.0 320.9 96.2 328.2 93.4 C330.1 93.4 331.9 93.0 333.8 92.5 C346.7 89.4 359.6 86.3 372.5 83.3 C372.5 81.4 372.0 79.5 371.1 77.8 C374.6 75.7 378.6 74.4 382.7 74.0 " fill="#000000" stroke="none"/> <path d="M269.3 134.0 C262.1 141.8 252.8 147.9 242.3 149.1 C231.9 150.4 220.4 145.9 215.2 136.8 C233.4 131.9 251.6 127.0 269.8 122.2 C270.1 124.6 270.4 127.0 270.7 129.4 C270.8 130.3 270.9 131.1 270.6 132.0 C270.4 132.8 269.8 133.4 269.3 134.0 M269.3 130.6 C268.3 128.1 264.7 128.4 262.1 129.1 C249.0 132.5 236.0 136.0 222.9 139.5 C222.5 141.4 225.3 141.8 227.2 141.4 C241.2 137.8 255.3 134.2 269.3 130.6 " fill="#000000" stroke="none"/> <path d="M223.3 111.7 C239.3 108.0 255.3 104.2 271.3 100.4 C270.3 99.6 269.3 98.7 268.3 97.9 C267.0 95.9 269.6 93.6 271.8 92.6 C273.0 96.4 274.1 100.2 275.0 104.0 C255.3 108.5 235.6 113.3 215.9 118.2 C214.0 118.7 211.6 119.7 211.7 121.7 C210.8 118.9 211.7 115.9 212.7 113.1 C213.5 110.7 214.5 108.0 216.6 106.4 C218.0 105.3 219.9 104.9 221.6 104.5 C235.9 101.2 250.1 98.0 264.4 94.7 C265.6 95.5 265.4 97.5 264.3 98.6 C263.3 99.6 261.7 99.9 260.2 100.2 C245.2 103.0 230.3 106.8 215.8 111.5 C218.0 112.8 220.8 112.3 223.3 111.7 " fill="#000000" stroke="none"/> <path d="M288.2 100.5 C287.6 98.0 287.0 95.4 286.4 92.8 C286.1 91.3 285.8 89.5 287.0 88.5 C287.6 87.9 288.4 87.8 289.2 87.7 C293.8 87.0 298.4 86.3 303.0 85.6 C303.4 87.4 303.7 89.2 304.1 91.0 C298.6 90.0 292.7 91.2 288.2 94.5 C292.9 95.3 296.3 100.7 295.1 105.4 C267.5 112.8 239.7 119.7 211.9 126.2 C210.7 125.8 210.6 124.1 211.4 123.1 C212.2 122.2 213.4 121.8 214.6 121.6 C236.9 116.2 259.2 110.8 281.5 105.4 C278.4 102.1 276.7 97.6 276.8 93.0 C276.9 91.8 277.1 90.5 278.2 89.9 C280.2 88.9 281.9 91.6 282.5 93.8 C283.6 98.1 284.7 102.4 285.8 106.7 C288.2 105.3 290.4 103.5 292.3 101.4 C291.4 100.2 289.5 99.8 288.2 100.5 " fill="#000000" stroke="none"/> <path d="M282.0 133.5 C284.4 129.1 284.6 123.6 282.6 119.1 C284.4 118.9 286.2 118.7 288.0 118.5 C287.8 123.4 289.2 130.0 294.0 130.1 C293.7 125.8 293.3 121.4 292.9 117.0 C294.7 117.0 296.3 116.1 297.4 114.7 C298.7 117.9 300.1 121.3 299.7 124.7 C299.4 128.2 296.8 131.7 293.4 131.7 C286.8 131.9 283.0 138.9 279.3 144.4 C271.8 155.6 259.6 163.5 246.3 165.7 C233.0 167.9 218.9 164.4 208.2 156.3 C205.6 154.3 203.1 151.7 203.2 148.6 C207.7 146.2 213.5 143.9 217.5 147.1 C231.7 158.2 254.5 155.8 266.2 142.1 C269.1 138.6 271.7 134.3 276.1 133.0 C275.2 128.4 274.4 123.8 273.5 119.2 C253.3 124.1 233.0 129.1 212.7 134.1 C212.2 132.7 211.7 131.4 211.1 130.0 C232.7 124.7 254.3 119.4 275.9 114.1 C277.7 120.6 279.8 127.1 282.0 133.5 M233.3 158.7 C239.5 161.3 246.8 160.8 252.5 157.4 C246.1 157.3 239.7 157.7 233.3 158.7 " fill="#000000" stroke="none"/> <path d="M106.9 121.7 C110.5 138.0 114.1 154.3 117.7 170.6 C118.5 174.1 121.3 178.6 124.4 176.9 C126.9 188.3 129.3 199.6 131.8 211.0 C126.8 210.6 122.5 215.3 117.5 214.9 C111.2 214.4 108.7 206.5 107.8 200.2 C104.8 177.4 103.5 154.1 95.9 132.4 C93.1 124.6 89.5 117.0 87.7 108.9 C86.9 105.0 88.1 99.2 92.0 99.7 C97.9 124.9 103.8 150.2 109.6 175.4 C110.2 178.0 113.1 181.3 114.8 179.2 C110.2 159.1 106.1 139.0 102.6 118.7 C98.2 116.1 95.8 110.4 97.0 105.4 C98.3 100.4 102.6 96.8 106.6 93.6 C114.4 120.3 120.8 147.5 125.6 174.9 C122.5 171.6 121.4 167.0 120.4 162.5 C117.9 150.9 115.3 139.3 112.7 127.7 C112.1 124.6 109.9 120.6 106.9 121.7 M123.4 207.7 C123.5 208.4 122.3 208.8 121.7 208.3 C121.1 207.9 120.9 207.0 120.7 206.3 C119.7 201.0 118.7 195.8 117.7 190.6 C113.6 197.0 114.9 206.4 120.7 211.4 C121.7 210.5 123.3 210.2 124.6 210.7 C125.3 209.6 124.7 208.0 123.4 207.7 M109.9 184.1 C110.4 187.1 110.8 190.2 111.2 193.3 C111.3 193.8 111.4 194.3 111.9 194.5 C112.3 194.7 112.9 194.1 112.5 193.8 C113.7 190.1 114.8 186.4 116.0 182.7 C114.0 183.1 111.9 183.6 109.9 184.1 M101.8 106.2 C103.4 107.9 101.6 110.5 99.9 112.1 C101.3 113.2 103.5 112.1 104.1 110.4 C104.8 108.8 104.3 106.9 103.8 105.2 C102.8 104.9 101.7 105.5 101.3 106.5 " fill="#000000" stroke="none"/> </svg>