<?xml version="1.0" encoding="UTF-8" standalone="no"?>
<!-- Created with Inkscape (http://www.inkscape.org/) -->

<svg
   xmlns:osb="http://www.openswatchbook.org/uri/2009/osb"
   xmlns:dc="http://purl.org/dc/elements/1.1/"
   xmlns:cc="http://creativecommons.org/ns#"
   xmlns:rdf="http://www.w3.org/1999/02/22-rdf-syntax-ns#"
   xmlns:svg="http://www.w3.org/2000/svg"
   xmlns="http://www.w3.org/2000/svg"
   xmlns:xlink="http://www.w3.org/1999/xlink"
   xmlns:sodipodi="http://sodipodi.sourceforge.net/DTD/sodipodi-0.dtd"
   xmlns:inkscape="http://www.inkscape.org/namespaces/inkscape"
   width="256px"
   height="256px"
   viewBox="0 0 256 256"
   version="1.1"
   id="SVGRoot"
   inkscape:version="0.92.4 (5da689c313, 2019-01-14)"
   sodipodi:docname="icon.svg">
  <defs
     id="defs4518">
    <linearGradient
       id="linearGradient5670"
       osb:paint="solid">
      <stop
         style="stop-color:#000000;stop-opacity:1;"
         offset="0"
         id="stop5668" />
    </linearGradient>
    <linearGradient
       id="linearGradient5647"
       osb:paint="solid">
      <stop
         style="stop-color:#000000;stop-opacity:1;"
         offset="0"
         id="stop5645" />
    </linearGradient>
    <linearGradient
       id="linearGradient5617"
       osb:paint="solid">
      <stop
         style="stop-color:#000000;stop-opacity:1;"
         offset="0"
         id="stop5615" />
    </linearGradient>
    <linearGradient
       inkscape:collect="always"
       id="linearGradient5601"
       osb:paint="gradient">
      <stop
         style="stop-color:#455d4e;stop-opacity:1;"
         offset="0"
         id="stop5597" />
      <stop
         style="stop-color:#455d4e;stop-opacity:0;"
         offset="1"
         id="stop5599" />
    </linearGradient>
    <linearGradient
       id="linearGradient5593"
       osb:paint="solid">
      <stop
         style="stop-color:#e3dbc4;stop-opacity:1;"
         offset="0"
         id="stop5591" />
    </linearGradient>
    <linearGradient
       id="linearGradient5551"
       osb:paint="solid">
      <stop
         style="stop-color:#435c4e;stop-opacity:1;"
         offset="0"
         id="stop5549" />
    </linearGradient>
    <linearGradient
       inkscape:collect="always"
       xlink:href="#linearGradient5551"
       id="linearGradient5553"
       x1="48.462891"
       y1="59.236328"
       x2="67.009766"
       y2="59.236328"
       gradientUnits="userSpaceOnUse"
       gradientTransform="matrix(0.94281192,0,0,2.0593534,-14.90617,-35.528594)" />
    <linearGradient
       inkscape:collect="always"
       xlink:href="#linearGradient5593"
       id="linearGradient5609"
       gradientUnits="userSpaceOnUse"
       x1="76.851562"
       y1="59"
       x2="95.398438"
       y2="59"
       gradientTransform="matrix(-1,0,0,2.0043501,187.55393,-31.693799)" />
    <linearGradient
       inkscape:collect="always"
       xlink:href="#linearGradient5551"
       id="linearGradient5639"
       gradientUnits="userSpaceOnUse"
       gradientTransform="matrix(0.696833,0,0,0.696833,-13.243111,42.833031)"
       x1="77.359268"
       y1="51.639687"
       x2="99.898331"
       y2="51.639687" />
    <linearGradient
       inkscape:collect="always"
       xlink:href="#linearGradient5551"
       id="linearGradient5649"
       x1="45.591465"
       y1="105.65473"
       x2="57.778965"
       y2="105.65473"
       gradientUnits="userSpaceOnUse" />
    <linearGradient
       inkscape:collect="always"
       xlink:href="#linearGradient5551"
       id="linearGradient5672"
       x1="-180.15125"
       y1="49.160622"
       x2="-174.69894"
       y2="49.160622"
       gradientUnits="userSpaceOnUse"
       gradientTransform="matrix(-1.7745473,0,0,1.7745473,-234.67864,-8.3741454)" />
  </defs>
  <sodipodi:namedview
     id="base"
     pagecolor="#ffffff"
     bordercolor="#666666"
     borderopacity="1.0"
     inkscape:pageopacity="0.0"
     inkscape:pageshadow="2"
     inkscape:zoom="5.6568542"
     inkscape:cx="160.24011"
     inkscape:cy="199.2807"
     inkscape:document-units="px"
     inkscape:current-layer="layer1"
     showgrid="false"
     inkscape:window-width="1920"
     inkscape:window-height="1057"
     inkscape:window-x="1912"
     inkscape:window-y="-8"
     inkscape:window-maximized="1"
     inkscape:grid-bbox="true" />
  <metadata
     id="metadata4521">
    <rdf:RDF>
      <cc:Work
         rdf:about="">
        <dc:format>image/svg+xml</dc:format>
        <dc:type
           rdf:resource="http://purl.org/dc/dcmitype/StillImage" />
        <dc:title></dc:title>
      </cc:Work>
    </rdf:RDF>
  </metadata>
  <g
     inkscape:label="Layer 1"
     inkscape:groupmode="layer"
     id="layer1">
    <path
       style="font-style:normal;font-weight:normal;font-size:40px;line-height:1.25;font-family:sans-serif;letter-spacing:0px;word-spacing:0px;fill:url(#linearGradient5553);fill-opacity:1;stroke:#455d4e;stroke-width:0;stroke-linejoin:bevel;stroke-miterlimit:4;stroke-dasharray:none;stroke-opacity:1;paint-order:stroke markers fill"
       d="m 45.509291,47.283959 c -2.197439,0 -3.983625,1.340724 -5.35856,4.022175 -1.362657,2.654634 -2.043986,6.502515 -2.043986,11.543639 v 5.993042 c 0,4.531648 -0.509463,8.08457 -1.528387,10.658762 -1.018924,2.547377 -2.262387,3.11729 -4.205825,4.850743 l -1.587312,1.415805 c 0,0 0.05893,-3.217739 0,0 l 2.117643,2.928143 c 0,0 2.65657,2.188063 3.675494,4.762255 1.018924,2.547377 1.528387,6.08689 1.528387,10.618537 v 5.99304 c 0,5.04113 0.681329,8.88901 2.043986,11.54365 1.374935,2.68144 3.161121,4.02217 5.35856,4.02217 h 2.762145 v -5.5506 h -2.09923 c -1.669563,0 -2.884907,-0.84466 -3.64603,-2.53397 -0.748848,-1.68931 -1.123273,-4.41099 -1.123273,-8.16502 v -7.0388 c 0,-3.727217 -0.472633,-6.851106 -1.4179,-9.371668 -0.945267,-2.547379 -2.25882,-4.558465 -3.940659,-6.033263 v -0.965322 c 1.681839,-1.474797 2.995392,-3.472477 3.940659,-5.993039 0.945267,-2.547377 1.4179,-5.684674 1.4179,-9.41189 v -7.038804 c 0,-3.75403 0.374425,-6.475702 1.123273,-8.165014 0.761123,-1.689315 1.976467,-2.533971 3.64603,-2.533971 h 2.09923 v -5.5506 z"
       id="text5076"
       inkscape:connector-curvature="0"
       sodipodi:nodetypes="scsscsccscsscsccscssccccsscsccs" />
    <path
       style="font-style:normal;font-weight:normal;font-size:40px;line-height:1.25;font-family:sans-serif;letter-spacing:0px;word-spacing:0px;fill:url(#linearGradient5609);fill-opacity:1;stroke:#455d4e;stroke-width:0;stroke-linejoin:bevel;stroke-miterlimit:4;stroke-dasharray:none;stroke-opacity:1;paint-order:stroke markers fill"
       d="m 95.085181,48.433227 c 2.33073,0 4.22526,1.304914 5.683589,3.914746 1.44532,2.583732 2.16797,6.32884 2.16797,11.235321 v 5.832973 c 0,4.410613 0.54037,7.86864 1.6211,10.374078 1.08073,2.479339 2.39961,3.03403 4.46093,4.721184 l 1.6836,1.377991 c 0,0 -0.0625,-3.131797 0,0 l -2.2461,2.849935 c 0,0 -2.8177,2.129622 -3.89843,4.63506 -1.08073,2.479339 -1.6211,5.924316 -1.6211,10.334925 v 5.83298 c 0,4.90648 -0.72265,8.65158 -2.16797,11.23532 -1.458329,2.60983 -3.352859,3.91474 -5.683589,3.91474 h -2.92969 v -5.40235 h 2.22657 c 1.77083,0 3.05989,-0.82209 3.86718,-2.46629 0.79427,-1.64419 1.19141,-4.29317 1.19141,-7.94693 v -6.85081 c 0,-3.627662 0.5013,-6.668114 1.503909,-9.121355 1.0026,-2.479341 2.39583,-4.436713 4.17968,-5.87212 v -0.939539 c -1.78385,-1.435408 -3.17708,-3.379732 -4.17968,-5.832972 -1.002609,-2.479339 -1.503909,-5.532842 -1.503909,-9.160507 v -6.850805 c 0,-3.653764 -0.39714,-6.302743 -1.19141,-7.946935 -0.80729,-1.644195 -2.09635,-2.466291 -3.86718,-2.466291 h -2.22657 v -5.402349 z"
       id="text5076-2"
       inkscape:connector-curvature="0"
       sodipodi:nodetypes="scsscsccscsscsccscssccccsscsccs"
       inkscape:transform-center-x="-11.187501"
       inkscape:transform-center-y="-8.1426725" />
    <text
       xml:space="preserve"
       style="font-style:normal;font-weight:normal;font-size:27.87331963px;line-height:1.25;font-family:sans-serif;letter-spacing:0px;word-spacing:0px;fill:url(#linearGradient5639);fill-opacity:1;stroke:none;stroke-width:0.69683301"
       x="37.015903"
       y="87.69101"
       id="text5613"
       transform="scale(1.1199132,0.89292634)"><tspan
         sodipodi:role="line"
         id="tspan5611"
         x="37.015903"
         y="87.69101"
         style="fill:url(#linearGradient5639);fill-opacity:1;stroke-width:0.69683301">&gt;</tspan></text>
    <text
       xml:space="preserve"
       style="font-style:normal;font-weight:normal;font-size:40px;line-height:1.25;font-family:sans-serif;letter-spacing:0px;word-spacing:0px;fill:url(#linearGradient5649);fill-opacity:1.0;stroke:none"
       x="42.603184"
       y="118.37934"
       id="text5643"><tspan
         sodipodi:role="line"
         id="tspan5641"
         x="42.603184"
         y="118.37934"
         style="fill-opacity:1.0;fill:url(#linearGradient5649)">-</tspan></text>
    <ellipse
       style="fill:#455d4e;fill-opacity:1;stroke:#455d4e;stroke-width:0;stroke-linejoin:bevel;stroke-miterlimit:4;stroke-dasharray:none;stroke-opacity:1;paint-order:stroke markers fill"
       id="path5651"
       cx="80.786949"
       cy="68.35154"
       rx="6.2755723"
       ry="4.4194174" />
    <rect
       style="fill:#455d4e;fill-opacity:1;stroke:#455d4e;stroke-width:0;stroke-linejoin:bevel;stroke-miterlimit:4;stroke-dasharray:none;stroke-opacity:1;paint-order:stroke markers fill"
       id="rect5653"
       width="2.2980971"
       height="20.85965"
       x="74.511375"
       y="68.970261" />
    <path
       style="fill:none;fill-rule:evenodd;stroke:url(#linearGradient5672);stroke-width:1.77454734"
       d="m 74.805091,89.774583 c 6.53877,-1.27358 9.04427,-3.566945 7.90446,-7.767716 -0.0233,-0.08585 0.0291,-0.175244 0.0425,-0.262616"
       id="path5658"
       inkscape:connector-curvature="0"
       sodipodi:nodetypes="csc" />
    <text
       xml:space="preserve"
       style="font-style:normal;font-weight:normal;font-size:23.18431091px;line-height:1.25;font-family:sans-serif;letter-spacing:0px;word-spacing:0px;fill:#000000;fill-opacity:1;stroke:none;stroke-width:0.57960778"
       x="117.33222"
       y="71.401764"
       id="text5677"
       transform="matrix(0,0.8433562,1.1857386,0,0,0)"><tspan
         sodipodi:role="line"
         id="tspan5675"
         x="117.33222"
         y="71.401764"
         style="stroke-width:0.57960778">)</tspan></text>
  </g>
</svg>
